<?xml version="1.0" encoding="UTF-8" standalone="no"?>
<!-- Created with Inkscape (http://www.inkscape.org/) -->

<svg
   xmlns:dc="http://purl.org/dc/elements/1.1/"
   xmlns:cc="http://creativecommons.org/ns#"
   xmlns:rdf="http://www.w3.org/1999/02/22-rdf-syntax-ns#"
   xmlns:svg="http://www.w3.org/2000/svg"
   xmlns="http://www.w3.org/2000/svg"
   xmlns:sodipodi="http://sodipodi.sourceforge.net/DTD/sodipodi-0.dtd"
   xmlns:inkscape="http://www.inkscape.org/namespaces/inkscape"
   width="364.59399"
   height="156"
   id="svg2"
   version="1.1"
   inkscape:version="0.48.4 r9939"
   sodipodi:docname="logotype.svg"
   inkscape:export-filename="/home/vahid/workspace/twa/twa/public/img/logotype.png"
   inkscape:export-xdpi="90"
   inkscape:export-ydpi="90">
  <defs
     id="defs4" />
  <sodipodi:namedview
     id="base"
     pagecolor="#0a6b92"
     bordercolor="#666666"
     borderopacity="1.0"
     inkscape:pageopacity="0"
     inkscape:pageshadow="2"
     inkscape:zoom="1.249678"
     inkscape:cx="221.38899"
     inkscape:cy="129.42396"
     inkscape:document-units="px"
     inkscape:current-layer="layer2"
     showgrid="false"
     fit-margin-top="0"
     fit-margin-left="0"
     fit-margin-right="0"
     fit-margin-bottom="0"
     showguides="true"
     inkscape:guide-bbox="true"
     inkscape:window-width="1323"
     inkscape:window-height="744"
     inkscape:window-x="43"
     inkscape:window-y="24"
     inkscape:window-maximized="1">
    <sodipodi:guide
       orientation="1,0"
       position="182.447,211.25442"
       id="guide3862" />
  </sodipodi:namedview>
  <metadata
     id="metadata7">
    <rdf:RDF>
      <cc:Work
         rdf:about="">
        <dc:format>image/svg+xml</dc:format>
        <dc:type
           rdf:resource="http://purl.org/dc/dcmitype/StillImage" />
        <dc:title></dc:title>
      </cc:Work>
    </rdf:RDF>
  </metadata>
  <g
     inkscape:label="back"
     inkscape:groupmode="layer"
     id="layer1"
     transform="translate(-0.04253386,-896.84321)"
     style="display:inline" />
  <g
     inkscape:groupmode="layer"
     id="layer2"
     inkscape:label="fore"
     transform="translate(-0.04253386,-896.84321)">
    <g
       id="g3168">
      <g
         transform="matrix(0.83675447,0,0,0.84488964,-3.4329209,167.59978)"
         style="font-size:88.1693573px;font-style:normal;font-variant:normal;font-weight:normal;font-stretch:normal;line-height:125%;letter-spacing:0px;word-spacing:0px;fill:#ffffff;fill-opacity:1;stroke:none;font-family:IranNastaliq;-inkscape-font-specification:IranNastaliq"
         id="text2993">
        <path
           d="m 426.61763,999.6307 c 1.80816,0.4592 3.11405,-0.043 3.91768,-1.5068 0.40181,-0.71752 0.71752,-1.27719 0.94713,-1.67901 0.2296,-0.4305 0.35876,-0.68881 0.38746,-0.77493 0.60272,-0.94712 1.16239,-1.62159 1.67901,-2.02341 0.54531,-0.43051 1.13368,-0.64576 1.76511,-0.64578 0.97582,2e-5 1.65029,0.24397 2.02342,0.73188 0.3157,10e-6 0.58836,-0.27265 0.81797,-0.81798 0.2296,-0.5166 0.43051,-0.77491 0.60272,-0.77492 0.74622,10e-6 1.11933,0.61708 1.11934,1.85121 -1e-5,1.06194 -0.28702,2.09518 -0.86103,3.0997 -0.57403,1.09065 -1.392,1.63596 -2.45393,1.63596 -0.28702,0 -0.64578,-0.1148 -1.07628,-0.34441 -0.48793,-0.22961 -0.94714,-0.34441 -1.37765,-0.34442 -0.77493,10e-6 -1.57856,0.61708 -2.41088,1.85122 -0.28702,0.54529 -0.91844,1.59289 -1.89427,3.14279 -0.63142,1.0906 -1.21979,1.7938 -1.7651,2.1095 -0.51662,0.287 -0.99019,0.33 -1.4207,0.1291 -0.31571,-0.9471 -0.53097,-1.8799 -0.64577,-2.7983 -0.11481,-0.9471 0.10045,-1.8943 0.64577,-2.8414 m 11.15032,18.2108 c -0.74623,0.9471 -1.67901,2.6691 -2.79834,5.1661 -1.09065,2.5257 -1.60726,4.3052 -1.54985,5.3384 1.83685,1.0332 2.75528,2.1239 2.75529,3.2719 -10e-6,0.8323 -0.25832,1.6072 -0.77493,2.3248 -0.48792,0.7175 -1.09064,1.0763 -1.80816,1.0763 -0.74623,0 -1.29155,-0.3445 -1.63595,-1.0333 -0.31572,-0.7175 -0.47357,-1.5068 -0.47357,-2.3678 0,-2.0091 0.87537,-4.8218 2.62614,-8.4381 1.75075,-3.6163 2.97054,-5.3958 3.65937,-5.3383"
           id="path3989"
           inkscape:connector-curvature="0" />
        <path
           d="m 426.61763,1005.2704 c -0.86105,-0.1435 -1.50682,-0.1435 -1.93732,0 -1.49246,0.488 -3.02796,2.1096 -4.6065,4.8648 -1.69337,2.7553 -3.58763,4.133 -5.68279,4.133 -2.12387,-0.1722 -3.73113,-1.1337 -4.82176,-2.8845 -1.09064,-1.7507 -1.65031,-3.9033 -1.67901,-6.4577 0.48792,-1.6646 1.03324,-3.0997 1.63595,-4.3051 0.60273,-1.23415 1.3059,-2.08082 2.10952,-2.54005 0,2.87015 0.70318,4.95095 2.10953,6.24245 1.06193,0.9471 2.29607,1.4207 3.70242,1.4207 1.95166,0 3.55891,-0.861 4.82176,-2.5831 0.94712,-1.2628 1.75075,-2.1669 2.41088,-2.7122 0.68881,-0.54533 1.33458,-0.81799 1.93732,-0.818 0.0574,0.11482 0.15784,0.531 0.30136,1.2485 0.14349,0.6888 0.21524,1.3059 0.21525,1.8512 -10e-6,0.574 -0.0574,1.0476 -0.1722,1.4207 -0.0861,0.3444 -0.20092,0.7175 -0.34441,1.1193 m -19.63146,39.0907 c 0,-0.3731 0.58837,-1.6646 1.76511,-3.8746 1.17674,-2.21 1.89426,-3.315 2.15257,-3.3149 0.48792,-0.201 1.19109,0.1434 2.10952,1.0332 0.94713,0.9184 1.66465,1.722 2.15257,2.4109 0.57402,-0.9472 1.20544,-2.0091 1.89427,-3.1858 0.71751,-1.1768 1.19108,-1.7652 1.42069,-1.7651 0.71752,-10e-5 1.5642,0.5166 2.54004,1.5498 1.00452,1.0619 1.53549,2.0521 1.5929,2.9706 -10e-6,1.0906 -0.53098,2.3821 -1.5929,3.8746 -1.03324,1.4637 -1.79382,2.1956 -2.28173,2.1956 -0.31571,0 -0.88973,-0.4162 -1.72205,-1.2485 -0.83234,-0.8323 -1.56421,-1.4781 -2.19563,-1.9373 -1.54985,3.1284 -2.78399,4.6926 -3.70242,4.6926 -0.22961,0 -0.55967,-0.1866 -0.99019,-0.5597 -0.40181,-0.3444 -1.01888,-0.861 -1.85121,-1.5498 -0.86102,-0.6889 -1.29154,-1.1194 -1.29154,-1.2916"
           id="path3991"
           inkscape:connector-curvature="0" />
        <path
           d="m 411.59268,998.03779 c -0.0574,1.09066 -0.17221,2.08081 -0.34441,2.97051 -0.17221,0.8611 -0.40182,1.6073 -0.68883,2.2387 -0.28701,0.6027 -0.66012,1.062 -1.11933,1.3777 -0.43052,0.287 -0.96149,0.3874 -1.59291,0.3013 0.0287,-2.2386 0.25831,-5.35269 0.68883,-9.34214 0.45921,-4.01811 1.13368,-8.4524 2.02341,-13.30289 0.45921,-1.40632 1.39199,-3.88895 2.79835,-7.4479 0.1435,-0.34438 0.287,-0.48788 0.43051,-0.43052 0.1722,0.0574 0.2583,0.20095 0.25831,0.43052 -0.0861,1.75079 -0.44487,5.09445 -1.07628,10.03098 -0.63143,4.93659 -1.0189,8.3233 -1.16239,10.16014 -0.14351,1.83688 -0.21527,2.84141 -0.21526,3.0136 m 0.21526,-25.3573 c -0.43052,0.31576 -0.71753,0.47361 -0.86103,0.47357 -0.11481,-0.0287 -0.11481,-0.17217 0,-0.43051 0.1148,-0.28697 0.35875,-0.64573 0.73187,-1.07629 0.37311,-0.43047 0.77492,-0.88969 1.20544,-1.37765 l 0.25831,-0.25831 0,-0.0861 c -0.43052,-0.17216 -0.87539,-0.38742 -1.33459,-0.64577 -0.45922,-0.28696 -0.67448,-0.51657 -0.64578,-0.68882 0.0287,-0.45917 0.76057,-1.39195 2.19563,-2.79835 0.77492,-0.86098 1.17673,-1.29149 1.20544,-1.29154 0.63141,-0.48787 1.23413,-0.70312 1.80816,-0.64577 0.3157,0.0287 0.60271,0.1579 0.86103,0.38746 0.25829,0.22966 0.3731,0.51667 0.34441,0.86103 -0.0287,0.22966 -0.14352,0.44491 -0.34441,0.64577 -0.17222,0.17226 -0.37313,0.24401 -0.60272,0.21526 -0.0574,5e-5 -0.20092,-0.0717 -0.43052,-0.21526 -0.22961,-0.17216 -0.50227,-0.27261 -0.81797,-0.30136 -0.28702,-0.0286 -0.61708,0.0861 -0.99019,0.34441 -0.37312,0.22966 -0.55967,0.41621 -0.55967,0.55967 -0.0287,0.37316 0.15785,0.68887 0.55967,0.94713 0.43051,0.22966 0.91842,0.37316 1.46375,0.43052 0.3444,0.0574 0.88972,-0.0574 1.63596,-0.34441 0.4879,-0.17216 1.04757,-0.43047 1.679,-0.77493 0.11479,-0.0861 0.21525,-0.10041 0.30136,-0.043 0.0861,0.0575 0.12914,0.1292 0.12916,0.21526 -0.0287,0.22965 -0.78929,0.78932 -2.28173,1.679 -1.46376,0.88978 -2.7266,1.82256 -3.78853,2.79835 -1.06194,0.94717 -1.63596,1.42074 -1.72205,1.42069"
           id="path3993"
           inkscape:connector-curvature="0" />
        <path
           d="m 371.81314,1004.926 c 2.46826,0 5.22355,-0.1148 8.26587,-0.3444 3.07098,-0.2296 5.99847,-0.6457 8.7825,-1.2485 2.81265,-0.6314 5.35269,-1.4207 7.62011,-2.3678 2.26732,-0.9471 3.87458,-1.80815 4.82176,-2.58309 0.94708,-0.80361 1.70765,-1.69334 2.28172,-2.66919 0.57397,-0.97582 0.94708,-1.46373 1.11934,-1.46375 0.22955,2e-5 0.31566,0.33008 0.25831,0.99018 -0.11486,0.91845 -0.48797,2.15259 -1.11934,3.70242 -0.83238,1.98043 -1.66471,3.55893 -2.49698,4.73563 -0.80368,1.1768 -1.79386,2.1813 -2.97055,3.0136 -1.6647,1.1194 -3.54461,2.1526 -5.63974,3.0997 -1.8369,0.7463 -3.84597,1.4207 -6.0272,2.0235 -3.32935,0.861 -6.6156,1.4924 -9.85878,1.8942 -3.24324,0.3731 -6.38599,0.5597 -9.42827,0.5597 -3.53023,0 -6.22812,-0.1435 -8.09367,-0.4305 -3.07101,-0.4879 -5.25228,-1.4064 -6.54382,-2.7553 -1.17674,-1.0619 -1.76511,-2.497 -1.76511,-4.3052 0,-0.7175 0.10045,-1.7364 0.30136,-3.0566 0.20091,-1.3202 0.43051,-2.6405 0.68882,-3.96075 0.28701,-1.32023 0.50227,-2.18125 0.64578,-2.58308 0.1435,-0.4305 0.35875,-0.64576 0.64577,-0.64578 0.287,2e-5 0.45921,0.25833 0.51661,0.77493 0.0861,0.48793 0.17221,1.27721 0.25831,2.36783 0.0861,1.09065 0.91843,2.08085 2.49699,2.97055 3.07099,1.4638 8.15106,2.2243 15.24021,2.2817 m -3.65938,-18.29684 c -10e-6,-0.37308 0.58836,-1.66463 1.76511,-3.87463 1.17672,-2.20994 1.89425,-3.31492 2.15258,-3.31496 0.48789,-0.20087 1.19106,0.15789 2.10952,1.07629 0.9471,0.88976 1.66463,1.67903 2.15257,2.36783 0.57399,-0.9471 1.20541,-2.00904 1.89426,-3.18581 0.7175,-1.1767 1.19106,-1.76507 1.4207,-1.76511 0.71749,4e-5 1.56417,0.531 2.54004,1.5929 1.0045,1.03327 1.53546,2.0091 1.5929,2.9275 -3e-5,1.09067 -0.531,2.38221 -1.5929,3.87463 -1.03327,1.46378 -1.79384,2.19565 -2.28173,2.19562 -0.31574,3e-5 -0.88976,-0.41613 -1.72206,-1.24849 -0.83235,-0.8323 -1.56423,-1.47807 -2.19562,-1.93731 -1.54988,3.12843 -2.78402,4.69263 -3.70243,4.69261 -0.22963,2e-5 -0.55969,-0.18654 -0.99018,-0.55967 -0.40183,-0.34439 -1.03325,-0.86101 -1.89426,-1.54986 -0.83235,-0.68879 -1.24851,-1.11931 -1.2485,-1.29154"
           id="path3995"
           inkscape:connector-curvature="0" />
        <path
           d="m 342.27987,1002.1707 c -1.00455,2.784 -1.93733,4.8362 -2.79834,6.1564 -0.86104,1.3202 -1.53552,2.1382 -2.02342,2.4539 -0.48793,0.3157 -1.2198,0.6601 -2.19563,1.0333 -0.97584,0.3444 -2.46828,0.8466 -4.47735,1.5068 -1.98036,0.6314 -3.1571,0.9471 -3.53021,0.9471 -0.22961,0 -0.34442,-0.057 -0.34442,-0.1722 -0.2296,-0.3157 0.96149,-1.349 3.57327,-3.0997 2.61179,-1.7508 4.29079,-2.8988 5.03702,-3.4441 0.77492,-0.5453 1.54985,-1.3346 2.32478,-2.3679 0.80362,-1.0619 1.39199,-2.253 1.76511,-3.5732 -0.40182,-0.057 -0.81799,0.029 -1.24849,0.2583 -0.40183,0.2009 -0.80364,0.3013 -1.20544,0.3013 -1.06195,-0.029 -1.95168,-0.3731 -2.66919,-1.0332 -0.71753,-0.6601 -1.01889,-1.39198 -0.90408,-2.19563 0.1148,-0.4879 0.27265,-1.04756 0.47356,-1.679 0.2296,-0.66011 0.68882,-1.69334 1.37765,-3.09971 0.68881,-1.40632 1.37764,-2.56871 2.06647,-3.48716 0.71751,-0.91841 1.42069,-1.37762 2.10952,-1.37765 1.17673,3e-5 2.15256,0.50229 2.9275,1.5068 0.80361,1.00456 1.20542,2.21 1.20544,3.61632 -2e-5,0.71755 -0.0431,1.43507 -0.12915,2.15257 -0.0861,0.68885 -0.18658,1.27721 -0.30137,1.76511 -0.0861,0.45924 -0.22962,1.06195 -0.43051,1.80815 -0.17222,0.7176 -0.37313,1.392 -0.60272,2.0234"
           id="path3997"
           inkscape:connector-curvature="0" />
        <path
           d="m 328.67557,991.92449 c -0.0287,0.77495 -0.33007,2.18129 -0.90408,4.21904 -0.54533,2.03778 -1.2772,4.26207 -2.19562,6.67297 -0.88974,2.4109 -1.67902,4.2334 -2.36783,5.4675 -0.68883,1.2342 -1.44941,2.1813 -2.28173,2.8414 -0.80363,0.6315 -2.12388,1.2198 -3.96073,1.7651 -1.80816,0.5167 -3.27191,0.8754 -4.39125,1.0763 -1.09063,0.1722 -1.77946,0.2583 -2.06647,0.2583 -0.287,-0.029 -0.45921,-0.1435 -0.51661,-0.3444 -0.0574,-0.2009 0.0287,-0.4592 0.25831,-0.7749 0.31571,-0.4879 1.10498,-1.1193 2.36783,-1.8943 1.29154,-0.8036 2.78398,-1.7938 4.47735,-2.9705 1.69334,-1.2054 2.89878,-2.253 3.61632,-3.1428 0.71751,-0.8897 1.52114,-2.2243 2.41088,-4.0038 0.91842,-1.7794 1.73639,-3.57321 2.45393,-5.38138 0.74621,-1.80814 1.27718,-3.04228 1.5929,-3.70243 0.3157,-0.6601 0.66011,-0.97581 1.03324,-0.94713 0.31569,0.0574 0.47355,0.34443 0.47356,0.86103 m -3.61632,-18.29686 c -1e-5,-0.63138 0.53096,-1.99468 1.59291,-4.08989 1.09062,-2.12383 1.79379,-3.18576 2.10952,-3.18581 0.6314,-0.25826 1.54983,0.22966 2.75529,1.46375 1.20542,1.20549 1.85119,2.15262 1.93731,2.8414 -2e-5,0.91847 -0.50228,2.23871 -1.5068,3.96073 -1.00455,1.72209 -1.73642,2.58312 -2.19562,2.58309 -0.17222,-0.0861 -0.77494,-0.45918 -1.80816,-1.11934 -1.00455,-0.68879 -1.75077,-1.2054 -2.23868,-1.54985 -0.43052,-0.28697 -0.64578,-0.58833 -0.64577,-0.90408"
           id="path3999"
           inkscape:connector-curvature="0" />
        <path
           d="m 297.20499,1007.2078 c 0.54531,-0.488 1.21978,-0.9185 2.02342,-1.2916 0.66011,-0.3444 1.33458,-0.5022 2.02341,-0.4736 1.09063,0.201 2.00906,0.3014 2.7553,0.3014 0.91841,0.057 1.72204,-0.086 2.41088,-0.4305 0.6601,-0.287 1.19107,-0.7749 1.5929,-1.4638 0.17219,-0.2583 0.34439,-0.5166 0.51662,-0.7749 0.20089,-0.287 0.44484,-0.6314 0.73187,-1.0332 0.31569,-0.4305 0.574,-0.6458 0.77493,-0.6458 0.25829,0 0.38744,0.2296 0.38746,0.6888 -2e-5,1.0907 -0.64579,2.8845 -1.93731,5.3815 -0.68884,1.4637 -1.43507,2.6692 -2.23868,3.6163 -1.17675,1.3489 -2.5257,2.2961 -4.04683,2.8414 -0.40183,0.1722 -1.0189,0.2583 -1.85122,0.2583 -0.17221,0 -0.71753,-0.057 -1.63595,-0.1722 -0.66013,-0.1148 -1.1911,-0.1722 -1.59291,-0.1722 -1.23414,0 -2.42523,0.4879 -3.57326,1.4637 -0.22962,0.2296 -0.64578,0.574 -1.2485,1.0333 -0.37311,0.3157 -0.68882,0.4448 -0.94713,0.3874 -0.28701,-0.1148 -0.27266,-0.6171 0.043,-1.5068 0.31571,-0.8036 0.76058,-1.679 1.3346,-2.6261 0.80362,-1.1768 1.57855,-2.2243 2.32478,-3.1428 0.66011,-0.861 1.37764,-1.6072 2.15257,-2.2386 m 4.04683,-21.87018 c -1e-5,-0.63139 0.53096,-1.99469 1.59291,-4.08989 1.09062,-2.12384 1.79379,-3.18577 2.10952,-3.18581 0.6314,-0.25827 1.54983,0.22965 2.75529,1.46375 1.20542,1.20548 1.85119,2.15261 1.93732,2.8414 -2e-5,0.91846 -0.50229,2.2387 -1.50681,3.96073 -1.00455,1.72209 -1.73642,2.58311 -2.19562,2.58309 -0.17222,-0.0861 -0.77494,-0.45919 -1.80816,-1.11934 -1.00455,-0.6888 -1.75077,-1.20541 -2.23867,-1.54985 -0.43053,-0.28698 -0.64579,-0.58834 -0.64578,-0.90408"
           id="path4001"
           inkscape:connector-curvature="0" />
        <path
           d="m 289.97235,987.57629 c -1.43507,5.1088 -3.04232,8.10804 -4.82176,8.99775 -2.497,1.20546 -4.01815,2.00909 -4.56345,2.41089 -0.54534,0.43053 -0.9041,0.76059 -1.07629,0.99018 -0.57403,0.80359 -1.1337,1.83689 -1.67901,3.09969 -0.94714,2.4109 -1.70772,4.2621 -2.28172,5.5536 -0.94714,1.9804 -2.35349,3.3868 -4.21904,4.2191 -0.88974,0.3444 -2.06648,0.6458 -3.53022,0.9041 -1.52116,0.3157 -2.71224,0.4735 -3.57327,0.4735 -0.74623,0.086 -1.21979,-0.086 -1.4207,-0.5166 -0.0574,-0.2583 0.22961,-0.617 0.86103,-1.0763 0.22961,-0.1722 1.01888,-0.7462 2.36783,-1.722 0.1435,-0.1435 1.17673,-0.818 3.0997,-2.0234 1.49245,-1.0046 2.19562,-1.4781 2.10952,-1.4207 1.66465,-1.3203 2.81269,-2.3535 3.44412,-3.0997 0.20089,-0.2583 0.87537,-1.6934 2.02342,-4.3052 1.17672,-2.61176 2.06645,-4.30511 2.66919,-5.08006 0.6027,-0.80361 1.54983,-1.62158 2.84139,-2.45393 0.4879,-0.25829 1.33458,-0.70315 2.54004,-1.3346 1.06191,-0.51659 1.80813,-0.96145 2.23867,-1.33459 0.40179,-0.34439 0.91841,-1.09061 1.54985,-2.23868 0.6314,-1.11931 1.07626,-1.66462 1.3346,-1.63595 0.25828,0.0861 0.28698,0.6171 0.0861,1.5929 m -12.09745,54.41701 c -2e-5,0.3157 0.21524,0.6171 0.64577,0.9041 0.4879,0.3444 1.23412,0.8466 2.23867,1.5068 1.03322,0.6888 1.63594,1.0763 1.80816,1.1624 0.4592,0 1.19107,-0.8611 2.19563,-2.5831 1.00451,-1.7221 1.50677,-3.0423 1.5068,-3.9607 -0.0861,-0.6889 -0.7319,-1.6504 -1.93732,-2.8845 -1.20546,-1.2054 -2.12389,-1.679 -2.75529,-1.4207 -0.31573,0 -1.0189,1.0476 -2.10952,3.1428 -1.06195,2.1238 -1.59292,3.5015 -1.5929,4.1329"
           id="path4003"
           inkscape:connector-curvature="0" />
        <path
           d="m 256.77969,989.1692 c 0.2009,-0.6027 0.63141,-0.70315 1.29154,-0.30136 3.70241,2.23869 5.55362,5.23794 5.55364,8.99775 -0.14352,2.81271 -0.74624,5.28101 -1.80816,7.40481 -1.03325,2.0952 -2.09518,3.6881 -3.18581,4.7787 -1.86557,1.8943 -4.56346,3.2863 -8.09367,4.176 -0.43052,0.086 -0.77493,0.1292 -1.03324,0.1292 -0.34441,0 -0.51661,-0.086 -0.51661,-0.2583 0,-0.3157 0.51661,-0.8467 1.54985,-1.5929 2.06646,-1.4351 4.00378,-3.071 5.81194,-4.9079 1.75075,-1.7507 2.62613,-2.9131 2.62614,-3.4872 -10e-6,-1.4924 -1.63596,-3.5732 -4.90786,-6.24241 -0.60273,-0.4879 -0.78928,-1.09062 -0.55967,-1.80816 0.86102,-1.66464 1.95166,-3.96071 3.27191,-6.88823"
           id="path4005"
           inkscape:connector-curvature="0" />
        <path
           d="m 246.40429,981.41994 c -0.0574,2.06649 -0.10047,3.93205 -0.12916,5.59668 -0.0287,1.66468 -0.11481,3.07102 -0.25831,4.21905 -0.22961,2.46829 -0.70318,4.66391 -1.42069,6.58687 -0.71754,1.89427 -1.29155,3.15706 -1.72206,3.78856 -0.40182,0.6314 -0.73188,1.0906 -0.99019,1.3776 -0.31571,0.287 -0.55967,0.3875 -0.73187,0.3014 -0.17221,-0.1148 -0.22961,-0.287 -0.17221,-0.5166 0,-0.057 0.17221,-0.9185 0.51662,-2.5831 0.34441,-1.69338 0.55967,-3.32934 0.64577,-4.9079 0.0861,-1.57854 0.10045,-3.80286 0.043,-6.67297 -0.0574,-2.89878 0.0144,-5.10875 0.21526,-6.62992 0.1148,-0.88971 0.30136,-1.80814 0.55967,-2.7553 0.287,-0.9471 0.60271,-1.87988 0.94713,-2.79834 0.34441,-0.9184 0.70317,-1.77943 1.07629,-2.58309 0.4018,-0.83229 0.76057,-1.56417 1.07628,-2.19562 0.2583,-0.40178 0.48791,-0.55964 0.68883,-0.47357 0.20089,0.0861 0.287,0.244 0.25831,0.47357 -0.0574,0.22964 -0.12917,0.77496 -0.21526,1.63595 -0.0574,0.83236 -0.11481,1.77949 -0.17221,2.8414 -0.0574,1.03326 -0.11481,2.05215 -0.1722,3.05665 -0.0287,1.00456 -0.0431,1.75079 -0.043,2.23868"
           id="path4007"
           inkscape:connector-curvature="0" />
        <path
           d="m 237.01907,991.92449 c -0.0287,0.77495 -0.33008,2.18129 -0.90408,4.21904 -0.54534,2.03778 -1.27721,4.26207 -2.19563,6.67297 -0.88974,2.4109 -1.67902,4.2334 -2.36783,5.4675 -0.68883,1.2342 -1.4494,2.1813 -2.28172,2.8414 -0.80364,0.6315 -2.12388,1.2198 -3.96073,1.7651 -1.80817,0.5167 -3.27192,0.8754 -4.39125,1.0763 -1.09064,0.1722 -1.77946,0.2583 -2.06647,0.2583 -0.28701,-0.029 -0.45922,-0.1435 -0.51662,-0.3444 -0.0574,-0.2009 0.0287,-0.4592 0.25831,-0.7749 0.31571,-0.4879 1.10499,-1.1193 2.36783,-1.8943 1.29154,-0.8036 2.78399,-1.7938 4.47735,-2.9705 1.69335,-1.2054 2.89879,-2.253 3.61632,-3.1428 0.71751,-0.8897 1.52114,-2.2243 2.41088,-4.0038 0.91842,-1.7794 1.7364,-3.57321 2.45393,-5.38138 0.74621,-1.80814 1.27718,-3.04228 1.59291,-3.70243 0.31569,-0.6601 0.6601,-0.97581 1.03323,-0.94713 0.3157,0.0574 0.47355,0.34443 0.47357,0.86103"
           id="path4009"
           inkscape:connector-curvature="0" />
        <path
           d="m 222.51073,979.31042 c -0.11485,0.71755 -0.30141,1.42073 -0.55967,2.10952 -0.22965,0.66015 -0.63146,1.59293 -1.20544,2.79834 -0.54536,1.20547 -0.87542,1.89429 -0.99019,2.06647 -0.45925,0.71755 -0.86106,1.07631 -1.20544,1.07629 -0.25834,-0.17218 -0.48795,-0.33004 -0.68882,-0.47357 -0.20094,-0.17218 -0.3875,-0.25828 -0.55967,-0.25831 -0.71756,3e-5 -1.66469,0.30139 -2.84139,0.90408 -1.17678,0.57405 -2.46832,1.50683 -3.87463,2.79835 -1.40638,1.29156 -2.51137,2.497 -3.31496,3.61632 -0.77496,1.11935 -1.16242,1.89428 -1.16239,2.32477 -3e-5,0.63144 0.20088,1.11936 0.60272,1.46375 0.34438,0.25833 0.96145,0.55969 1.85121,0.90408 0.8897,0.34443 1.47807,0.63144 1.76511,0.86103 0.9471,0.66016 1.42066,1.95166 1.4207,3.87466 -4e-5,2.6692 -0.5023,5.7258 -1.50681,9.1699 -1.00456,3.4154 -2.3248,6.386 -3.96073,8.9117 -0.83235,1.1767 -1.80818,2.3534 -2.9275,3.5302 -1.11936,1.1767 -2.32479,2.1813 -3.61632,3.0136 -2.4683,1.6359 -5.30969,2.4539 -8.52418,2.4539 -3.64503,-0.057 -6.41467,-1.2915 -8.30893,-3.7024 -0.86103,-1.2341 -1.46375,-2.54 -1.80816,-3.9177 -0.31571,-1.3776 -0.47357,-2.6835 -0.47357,-3.9177 0,-1.5785 0.1148,-3.1284 0.34441,-4.6495 0.22961,-1.4925 0.58837,-2.9993 1.07629,-4.5204 0.74622,-2.4683 1.6503,-4.8505 2.71224,-7.1466 1.06193,-2.296 1.92296,-4.14723 2.58309,-5.55359 l 2.02341,-4.30514 c 0.2296,-0.4879 0.47356,-0.96146 0.73188,-1.4207 0.2583,-0.45919 0.48791,-0.6888 0.68882,-0.68882 0.287,2e-5 0.43051,0.22963 0.43052,0.68882 0.0287,0.45924 -0.0144,0.80365 -0.12916,1.03323 -0.31572,0.83235 -0.58838,1.53553 -0.81798,2.10952 -0.22961,0.54534 -0.57402,1.34897 -1.03323,2.41089 -0.45922,1.06195 -0.96149,2.20998 -1.5068,3.44409 -0.51662,1.2342 -0.94714,2.2531 -1.29154,3.0567 -1.69336,4.4773 -2.54004,7.8353 -2.54004,10.074 0,2.3535 0.83232,4.219 2.49698,5.5967 1.69335,1.3776 4.06118,2.0665 7.10349,2.0665 2.52567,0 4.96525,-0.5884 7.31875,-1.7651 1.75074,-0.8898 3.21448,-1.9661 4.39125,-3.2289 1.17671,-1.2628 2.06644,-2.4396 2.66919,-3.5302 0.63139,-1.1194 0.9471,-2.1239 0.94713,-3.0136 -3e-5,-0.5453 -0.41619,-0.9471 -1.24849,-1.2055 -0.80366,-0.2583 -1.39203,-0.4305 -1.76511,-0.5166 -0.34444,-0.086 -0.74625,-0.2439 -1.20544,-0.4735 -0.88976,-0.4305 -1.56423,-0.9615 -2.02342,-1.5929 -0.45924,-0.6602 -0.68885,-1.5499 -0.68883,-2.6692 -2e-5,-1.6934 0.5453,-3.84595 1.63596,-6.45775 1.11931,-2.61177 2.68351,-5.1805 4.69261,-7.70621 1.63592,-2.06644 3.12837,-3.74545 4.47735,-5.03702 0.71749,-0.66009 1.63592,-1.40631 2.75529,-2.23867 1.1193,-0.861 2.20994,-1.59287 3.27191,-2.19563 1.2915,-0.74619 2.31039,-1.1767 3.05665,-1.29154 0.31567,3e-5 0.53093,0.12919 0.64577,0.38746 0.11477,0.25835 0.14347,0.5023 0.0861,0.73188"
           id="path4011"
           inkscape:connector-curvature="0" />
        <path
           d="m 172.01139,990.03023 c -0.0574,2.06649 -0.10047,3.93205 -0.12916,5.59668 -0.0287,1.66468 -0.11481,3.07102 -0.25831,4.21904 -0.22961,2.46825 -0.70318,4.66395 -1.42069,6.58685 -0.71753,1.8943 -1.29155,3.1571 -1.72206,3.7886 -0.40182,0.6314 -0.73188,1.0906 -0.99018,1.3776 -0.31572,0.287 -0.55968,0.3875 -0.73188,0.3014 -0.17221,-0.1148 -0.22961,-0.287 -0.1722,-0.5167 -10e-6,-0.057 0.1722,-0.9184 0.51661,-2.583 0.34441,-1.6934 0.55967,-3.3293 0.64577,-4.9079 0.0861,-1.5786 0.10045,-3.8029 0.0431,-6.67298 -0.0574,-2.89878 0.0143,-5.10875 0.21525,-6.62993 0.1148,-0.8897 0.30136,-1.80813 0.55967,-2.75529 0.28701,-0.9471 0.60272,-1.87988 0.94713,-2.79834 0.34441,-0.9184 0.70317,-1.77943 1.07629,-2.58309 0.4018,-0.83229 0.76057,-1.56417 1.07629,-2.19562 0.2583,-0.40178 0.4879,-0.55964 0.68882,-0.47357 0.2009,0.0861 0.287,0.24399 0.25831,0.47357 -0.0574,0.22964 -0.12917,0.77496 -0.21526,1.63595 -0.0574,0.83236 -0.11481,1.77949 -0.17221,2.8414 -0.0574,1.03326 -0.11481,2.05214 -0.1722,3.05665 -0.0287,1.00456 -0.0431,1.75078 -0.043,2.23868"
           id="path4013"
           inkscape:connector-curvature="0" />
        <path
           d="m 151.21754,999.88901 c 0.45921,0.14349 0.94713,0.043 1.46375,-0.30136 0.54531,-0.34441 1.29154,-1.32024 2.23867,-2.9275 0.48791,0.28702 0.80362,0.45922 0.94713,0.51661 0.88973,0.31572 1.7077,-0.73186 2.45394,-3.14275 0.11479,-0.0287 0.38745,0.0287 0.81797,0.17221 0.45921,0.14351 0.83232,10e-6 1.11934,-0.43052 0.3157,-0.4018 0.63141,-1.01887 0.94713,-1.85121 0.3444,-0.86102 0.55966,-1.29153 0.64577,-1.29154 0.2009,-0.0287 0.33005,0.0861 0.38747,0.34441 0.0574,0.25832 0.043,0.55968 -0.043,0.90408 -0.22962,1.26285 -0.63144,2.54004 -1.20544,3.83158 -0.48793,1.17674 -1.09065,2.06647 -1.80817,2.66919 -0.68883,0.60272 -1.3346,1.20544 -1.93731,1.80819 -0.63143,0.6314 -1.20545,1.0332 -1.72206,1.2054 -0.60272,0.2296 -1.16239,0.4449 -1.679,0.6458 -2.09518,2.21 -3.47282,3.2862 -4.13294,3.2288 -0.0861,-0.2296 -0.18656,-0.574 -0.30136,-1.0332 -0.11481,-0.4592 -0.18656,-0.9471 -0.21526,-1.4637 -0.0574,-0.5454 -0.043,-1.0907 0.043,-1.636 0.0574,-0.574 0.21526,-1.0763 0.47357,-1.5068 l 1.5068,0.25831"
           id="path4015"
           inkscape:connector-curvature="0" />
        <path
           d="m 149.71074,1005.2704 c -0.86105,-0.1435 -1.50682,-0.1435 -1.93732,0 -1.49246,0.488 -3.02796,2.1096 -4.6065,4.8648 -1.69337,2.7553 -3.58763,4.133 -5.68279,4.133 -2.12388,-0.1722 -3.73113,-1.1337 -4.82177,-2.8845 -1.09063,-1.7507 -1.6503,-3.9033 -1.679,-6.4577 0.48792,-1.6646 1.03324,-3.0997 1.63595,-4.3051 0.60272,-1.23415 1.3059,-2.08082 2.10952,-2.54005 0,2.87015 0.70318,4.95095 2.10952,6.24245 1.06194,0.9471 2.29608,1.4207 3.70243,1.4207 1.95166,0 3.55891,-0.861 4.82176,-2.5831 0.94712,-1.2628 1.75075,-2.1669 2.41088,-2.7122 0.68881,-0.54533 1.33458,-0.81799 1.93732,-0.818 0.0574,0.11482 0.15784,0.531 0.30136,1.2485 0.14349,0.6888 0.21524,1.3059 0.21525,1.8512 -1e-5,0.574 -0.0574,1.0476 -0.1722,1.4207 -0.0861,0.3444 -0.20092,0.7175 -0.34441,1.1193 m -15.15411,-38.10049 c 0,-0.37307 0.58837,-1.66461 1.76511,-3.87463 1.17673,-2.20992 1.89426,-3.31491 2.15257,-3.31496 0.48791,-0.20085 1.19108,0.15791 2.10952,1.07628 0.94713,0.88979 1.66465,1.67906 2.15257,2.36783 0.57401,-0.94708 1.20543,-2.00901 1.89427,-3.1858 0.71751,-1.17669 1.19107,-1.76506 1.42069,-1.76511 0.71752,5e-5 1.56419,0.53102 2.54004,1.5929 1.00452,1.03329 1.53548,2.00912 1.5929,2.9275 -1e-5,1.09069 -0.53098,2.38223 -1.5929,3.87463 -1.03325,1.46379 -1.79382,2.19567 -2.28173,2.19562 -0.31572,5e-5 -0.88974,-0.41612 -1.72206,-1.24849 -0.83233,-0.83228 -1.56421,-1.47805 -2.19562,-1.93731 -1.54986,3.12845 -2.784,4.69265 -3.70242,4.6926 -0.22961,5e-5 -0.55968,-0.18651 -0.99019,-0.55967 -0.40181,-0.34436 -1.03323,-0.86098 -1.89426,-1.54985 -0.83233,-0.68877 -1.24849,-1.11929 -1.24849,-1.29154"
           id="path4017"
           inkscape:connector-curvature="0" />
        <path
           d="m 134.64275,998.03779 c -0.0574,1.09066 -0.17221,2.08081 -0.34441,2.97051 -0.17222,0.8611 -0.40182,1.6073 -0.68883,2.2387 -0.28701,0.6027 -0.66012,1.062 -1.11933,1.3777 -0.43052,0.287 -0.96149,0.3874 -1.59291,0.3013 0.0287,-2.2386 0.25831,-5.35269 0.68883,-9.34214 0.45921,-4.01811 1.13368,-8.4524 2.02341,-13.30289 0.45921,-1.40632 1.39199,-3.88895 2.79835,-7.4479 0.14349,-0.34438 0.287,-0.48788 0.43051,-0.43052 0.1722,0.0574 0.2583,0.20095 0.25831,0.43052 -0.0861,1.75079 -0.44487,5.09445 -1.07629,10.03098 -0.63142,4.93659 -1.01889,8.3233 -1.16239,10.16014 -0.14351,1.83688 -0.21526,2.84141 -0.21525,3.0136"
           id="path4019"
           inkscape:connector-curvature="0" />
        <path
           d="m 113.71974,1000.75 c 0.11478,0.5741 0.0717,1.2055 -0.12915,1.8943 -0.20093,0.6888 -0.53099,1.4638 -0.99019,2.3248 -0.43053,0.8323 -1.0189,1.6072 -1.7651,2.3248 -0.48794,0.4592 -0.8754,0.6888 -1.16239,0.6888 -0.17223,0 -0.57404,-0.244 -1.20544,-0.7319 -0.60274,-0.5166 -1.16241,-0.9758 -1.67901,-1.3776 -0.48793,-0.4305 -0.91845,-0.818 -1.29154,-1.1624 -0.34443,-0.3444 -0.51664,-0.6314 -0.51662,-0.8611 0.3731,-0.7749 0.64576,-1.3632 0.81798,-1.7651 0.574,-1.2915 1.06192,-2.31038 1.46375,-3.05662 0.43049,-0.74621 1.09061,-1.8512 1.98036,-3.31496 0.5166,0.43053 1.14802,0.94715 1.89427,1.54985 0.7749,0.57403 1.36327,1.11935 1.7651,1.63595 0.4305,0.51664 0.70315,1.13368 0.81798,1.85118 m 13.00154,-4.21901 c -0.51666,9.01211 -3.12844,16.76141 -7.83536,23.24781 -4.64958,6.2855 -10.23192,9.4569 -16.74702,9.5143 -3.386718,-0.1435 -6.070256,-1.2628 -8.050616,-3.358 -1.980369,-2.0664 -3.027953,-4.9509 -3.142756,-8.6533 -0.0287,-5.855 1.894261,-12.2123 5.768894,-19.0718 0.746218,-1.37763 1.191082,-1.80814 1.334594,-1.29154 0.143497,0.48793 0.129147,0.9902 -0.04305,1.5068 -2.554391,5.05134 -3.860283,9.41394 -3.917681,13.08764 0.1148,2.7553 1.090631,4.8505 2.927498,6.2855 1.865554,1.4351 4.319487,2.21 7.361797,2.3248 3.73111,0 7.31872,-0.9902 10.76286,-2.9706 3.41539,-2.2673 5.79756,-5.2953 7.14654,-9.0838 0.51658,-1.3203 0.77489,-3.071 0.77493,-5.2523 -4e-5,-0.8323 -0.0144,-1.8799 -0.0431,-3.14275 -3e-5,-1.29153 -3e-5,-2.20996 0,-2.75529 0.11477,-1.57854 0.48789,-3.31494 1.11934,-5.20923 0.63139,-1.92294 1.14801,-3.31493 1.54985,-4.17599 0.43048,-0.861 0.78924,-1.29151 1.07629,-1.29154 0.20087,3e-5 0.28697,0.22963 0.25831,0.68882 -0.0287,0.43054 -0.0718,1.27722 -0.12916,2.54004 -0.0574,1.26286 -0.11484,3.61634 -0.1722,7.06043"
           id="path4021"
           inkscape:connector-curvature="0" />
        <path
           d="m 77.900938,1001.7833 c -0.401814,0.1435 -0.846678,0.1865 -1.334595,0.1291 -0.487915,-0.029 -0.861027,-0.072 -1.119338,-0.1291 1.061937,-2.2387 2.339129,-4.34822 3.831579,-6.32859 1.492447,-1.98036 2.82704,-3.55891 4.003784,-4.73566 1.09063,-1.03322 1.966009,-1.72205 2.626138,-2.06647 0.574011,-0.287 0.889721,-0.2583 0.947132,0.0861 0.08609,0.31573 -0.215266,1.11935 -0.90408,2.41088 -0.631429,1.23415 -1.090644,2.25304 -1.377647,3.05666 -0.229614,0.51662 -0.71753,0.99019 -1.463749,1.42069 -0.77493,0.40182 -1.722061,1.2485 -2.841395,2.54004 -1.090638,1.37765 -1.879914,2.58305 -2.367829,3.61635 m -6.716026,-35.64663 c 7e-6,-0.37307 0.588376,-1.66461 1.765109,-3.87463 1.176744,-2.20993 1.894267,-3.31491 2.152573,-3.31496 0.487918,-0.20086 1.205442,0.1579 2.152572,1.07629 0.91843,0.88977 1.621603,1.67905 2.109521,2.36783 0.574017,-0.94709 1.205437,-2.00903 1.894263,-3.18581 0.71752,-1.17669 1.191086,-1.76506 1.420698,-1.76511 0.717518,5e-5 1.564196,0.53101 2.540035,1.59291 1.004525,1.03327 1.535493,2.0091 1.592903,2.92749 -8e-6,1.09068 -0.530976,2.38222 -1.592903,3.87463 -1.033241,1.46379 -1.793816,2.19566 -2.281726,2.19563 -0.315716,3e-5 -0.889734,-0.41613 -1.722058,-1.24849 -0.832331,-0.8323 -1.564204,-1.47807 -2.195624,-1.93732 -1.549851,3.12844 -2.783992,4.69264 -3.702424,4.69261 -0.229605,3e-5 -0.559666,-0.18653 -0.990183,-0.55967 -0.40181,-0.34438 -1.01888,-0.861 -1.851212,-1.54985 -0.861023,-0.68879 -1.291537,-1.1193 -1.291544,-1.29155"
           id="path4023"
           inkscape:connector-curvature="0" />
        <path
           d="m 76.781598,1003.8928 -2.109521,4.6065 c -0.631425,1.3489 -1.162393,1.8943 -1.592903,1.636 -0.229611,-0.1149 -0.229611,-0.5741 0,-1.3777 l 0.344411,-1.679 c 0.1148,-0.574 -0.287013,-1.105 -1.20544,-1.5929 -0.889732,-0.4879 -2.023419,-0.7319 -3.401064,-0.7319 -1.406345,0.029 -2.568733,0.2009 -3.487167,0.5166 l -6.113305,-0.5596 c 4.333851,-5.30971 8.725094,-7.96454 13.173741,-7.96455 1.320241,10e-6 2.367825,0.15786 3.142756,0.47357 0.688817,0.25831 1.305887,0.66012 1.851212,1.20544 0.0861,0.0861 0.157848,0.17221 0.215257,0.25831 0.05739,0.0574 0.114796,0.10045 0.172206,0.12915 0.229599,0.34441 0.401805,0.63142 0.516617,0.86103 0.0861,0.37315 0.100445,0.71755 0.04305,1.03325 -0.114812,0.4018 -0.243967,0.7606 -0.387463,1.0763 l -1.162389,2.1095"
           id="path4025"
           inkscape:connector-curvature="0" />
        <path
           d="m 68.860129,998.55441 c 0.344392,-0.14349 0.674453,-0.27264 0.990184,-0.38746 0.373091,0.91844 0.545297,1.83685 0.516617,2.75525 -0.02872,0.9185 -0.200928,1.8226 -0.516617,2.7123 -0.172227,0.057 -1.033255,0.3731 -2.583087,0.9471 -1.549869,0.574 -2.51135,0.9472 -2.884447,1.1194 -1.521164,0.6027 -3.257571,2.0951 -5.209224,4.4773 -1.922973,2.3822 -3.587627,4.4343 -4.993968,6.1564 -2.898799,3.7024 -6.156355,6.759 -9.772678,9.1699 -0.832322,0.4879 -1.765102,0.9902 -2.798344,1.5068 -1.492441,0.7462 -2.611777,1.2915 -3.358012,1.636 -0.63141,0.3157 -1.104975,0.3874 -1.420698,0.2152 -0.143492,-0.2296 -0.07174,-0.4879 0.215257,-0.7749 0.172218,-0.1148 0.373125,-0.2727 0.602721,-0.4736 0.229619,-0.1722 0.487927,-0.3731 0.774926,-0.6027 l 3.616321,-2.5831 c 2.353484,-1.8655 3.759829,-3.0423 4.219041,-3.5302 1.320246,-1.2341 2.253027,-2.1956 2.798344,-2.8844 0.60272,-0.5167 1.406346,-1.4064 2.410881,-2.6692 0.717521,-0.8611 2.20997,-2.9419 4.47735,-6.2425 1.291535,-1.8081 2.324769,-3.1858 3.099704,-4.1329 1.119327,-1.2629 2.195612,-2.3104 3.228859,-3.1428 1.061921,-0.7462 2.123856,-1.3633 3.185806,-1.85119 0.401797,-0.20089 1.535484,-0.67446 3.401064,-1.4207"
           id="path4027"
           inkscape:connector-curvature="0" />
        <path
           d="m 50.434113,985.72508 c -0.05741,2.06649 -0.100463,3.93205 -0.129154,5.59669 -0.02871,1.66467 -0.114813,3.07102 -0.258309,4.21904 -0.229616,2.4683 -0.703182,4.66389 -1.420698,6.58689 -0.717531,1.8943 -1.291549,3.1571 -1.722057,3.7885 -0.401819,0.6314 -0.73188,1.0906 -0.990184,1.3777 -0.315715,0.287 -0.559673,0.3874 -0.731874,0.3013 -0.17221,-0.1148 -0.229612,-0.287 -0.172206,-0.5166 -4e-6,-0.057 0.172202,-0.9184 0.516617,-2.5831 0.344407,-1.6933 0.559664,-3.3293 0.645772,-4.90785 0.0861,-1.57854 0.100448,-3.80287 0.04305,-6.67298 -0.05741,-2.89877 0.01435,-5.10875 0.215258,-6.62992 0.114798,-0.88971 0.301354,-1.80814 0.559668,-2.75529 0.287004,-0.94711 0.602714,-1.87989 0.947132,-2.79835 0.344405,-0.9184 0.703166,-1.77942 1.076286,-2.58308 0.401805,-0.8323 0.760567,-1.56417 1.076286,-2.19563 0.2583,-0.40178 0.487907,-0.55963 0.688824,-0.47356 0.200896,0.0861 0.286999,0.24399 0.258308,0.47356 -0.05741,0.22964 -0.129164,0.77496 -0.215257,1.63596 -0.05741,0.83236 -0.114814,1.77949 -0.172206,2.84139 -0.05741,1.03327 -0.114813,2.05215 -0.172206,3.05666 -0.02871,1.00456 -0.04306,1.75078 -0.04305,2.23867"
           id="path4029"
           inkscape:connector-curvature="0" />
        <path
           d="m 26.928025,1000.75 c 0.11478,0.5741 0.07173,1.2055 -0.129155,1.8943 -0.20093,0.6888 -0.53099,1.4638 -0.990183,2.3248 -0.430536,0.8323 -1.018905,1.6072 -1.765109,2.3248 -0.487937,0.4592 -0.875399,0.6888 -1.162389,0.6888 -0.172225,0 -0.574038,-0.244 -1.205441,-0.7319 -0.602737,-0.5166 -1.162406,-0.9758 -1.679006,-1.3776 -0.487932,-0.4305 -0.918446,-0.818 -1.291543,-1.1624 -0.344427,-0.3444 -0.516632,-0.6314 -0.516618,-0.8611 0.373098,-0.7749 0.645757,-1.3632 0.817978,-1.7651 0.574003,-1.2915 1.061919,-2.31038 1.463749,-3.05662 0.430497,-0.74621 1.090619,-1.8512 1.980366,-3.31496 0.516598,0.43053 1.148019,0.94715 1.894264,1.54985 0.774904,0.57403 1.363273,1.11935 1.765109,1.63595 0.430492,0.51664 0.70315,1.13368 0.817978,1.85118 m 13.001536,-4.21901 c -0.516654,9.01211 -3.128439,16.76141 -7.835363,23.24781 -4.64958,6.2855 -10.231912,9.4569 -16.747012,9.5143 -3.386722,-0.1435 -6.0702592,-1.2628 -8.0506199,-3.358 -1.9803682,-2.0664 -3.0279523,-4.9509 -3.1427554,-8.6533 -0.028702,-5.855 1.894261,-12.2123 5.7688935,-19.0718 0.7462178,-1.37763 1.1910828,-1.80814 1.3345948,-1.29154 0.143497,0.48793 0.129146,0.9902 -0.04305,1.5068 -2.5543913,5.05134 -3.8602838,9.41394 -3.9176819,13.08764 0.1148,2.7553 1.0906317,4.8505 2.9274979,6.2855 1.865554,1.4351 4.319484,2.21 7.361797,2.3248 3.731108,0 7.318724,-0.9902 10.762861,-2.9706 3.415387,-2.2673 5.797564,-5.2953 7.14654,-9.0838 0.516585,-1.3203 0.774893,-3.071 0.774926,-5.2523 -3.3e-5,-0.8323 -0.01438,-1.8799 -0.04305,-3.14275 -3.2e-5,-1.29153 -3.2e-5,-2.20996 0,-2.75529 0.114772,-1.57854 0.487884,-3.31494 1.119338,-5.20923 0.631387,-1.92294 1.148004,-3.31493 1.549852,-4.17599 0.430479,-0.861 0.78924,-1.29151 1.076286,-1.29154 0.20087,3e-5 0.286973,0.22963 0.258309,0.68882 -0.02874,0.43054 -0.07179,1.27722 -0.129155,2.54004 -0.05744,1.26286 -0.11484,3.61634 -0.172205,7.06043"
           id="path4031"
           inkscape:connector-curvature="0" />
      </g>
      <g
         transform="matrix(0.84081221,0,0,0.84081221,-3.4329209,167.59978)"
         style="font-size:31.32772064px;font-style:normal;font-variant:normal;font-weight:normal;font-stretch:normal;line-height:125%;letter-spacing:0px;word-spacing:0px;fill:#ffffff;fill-opacity:1;stroke:none;font-family:IranNastaliq;-inkscape-font-specification:IranNastaliq"
         id="text2985">
        <path
           d="m 278.70652,886.00093 c -0.35693,0.9892 -0.68836,1.71834 -0.99429,2.18744 -0.30594,0.4691 -0.54559,0.75974 -0.71895,0.87191 -0.17336,0.11218 -0.43341,0.23455 -0.78013,0.36712 -0.34673,0.12238 -0.87702,0.30084 -1.59086,0.53539 -0.70365,0.22435 -1.12176,0.33653 -1.25433,0.33653 -0.0816,0 -0.12238,-0.0204 -0.12238,-0.0612 -0.0816,-0.11218 0.34163,-0.4793 1.26963,-1.10137 0.928,-0.62206 1.52457,-1.02997 1.78972,-1.22373 0.27534,-0.19376 0.55068,-0.4742 0.82602,-0.84133 0.28554,-0.37731 0.49459,-0.80052 0.62717,-1.26962 -0.14277,-0.0204 -0.29064,0.0102 -0.4436,0.0918 -0.14278,0.0714 -0.28555,0.10708 -0.42831,0.10707 -0.37733,-0.0102 -0.69346,-0.13256 -0.9484,-0.36712 -0.25495,-0.23454 -0.36203,-0.49459 -0.32123,-0.78013 0.0408,-0.17336 0.0969,-0.37222 0.16826,-0.59658 0.0816,-0.23454 0.24475,-0.60166 0.4895,-1.10136 0.24474,-0.49969 0.48949,-0.9127 0.73424,-1.23904 0.25494,-0.32632 0.50479,-0.48948 0.74954,-0.48949 0.41811,10e-6 0.76483,0.17847 1.04018,0.53538 0.28553,0.35694 0.4283,0.78524 0.42831,1.28493 -10e-6,0.25495 -0.0153,0.5099 -0.0459,0.76484 -0.0306,0.24475 -0.0663,0.45381 -0.10708,0.62716 -0.0306,0.16317 -0.0816,0.37733 -0.15297,0.64247 -0.0612,0.25495 -0.13257,0.4946 -0.21415,0.71894"
           id="path4034"
           inkscape:connector-curvature="0" />
        <path
           d="m 273.87274,882.36031 c -0.0102,0.27535 -0.11728,0.77504 -0.32123,1.49908 -0.19376,0.72405 -0.45381,1.51438 -0.78013,2.37099 -0.31614,0.85662 -0.59658,1.50419 -0.84132,1.94269 -0.24476,0.43851 -0.515,0.77504 -0.81073,1.00958 -0.28554,0.22436 -0.75464,0.43341 -1.4073,0.62717 -0.64247,0.18356 -1.16255,0.31103 -1.56027,0.38242 -0.38752,0.0612 -0.63226,0.0918 -0.73424,0.0918 -0.10198,-0.0102 -0.16317,-0.051 -0.18356,-0.12237 -0.0204,-0.0714 0.0102,-0.16317 0.0918,-0.27535 0.11217,-0.17336 0.39261,-0.39771 0.84132,-0.67305 0.4589,-0.28554 0.98919,-0.63736 1.59086,-1.05548 0.60167,-0.4283 1.02998,-0.80052 1.28493,-1.11666 0.25494,-0.31613 0.54048,-0.79033 0.85661,-1.4226 0.32633,-0.63226 0.61697,-1.26962 0.87192,-1.91209 0.26514,-0.64245 0.45379,-1.08096 0.56598,-1.31552 0.11217,-0.23454 0.23454,-0.34672 0.36712,-0.33653 0.11217,0.0204 0.16826,0.12239 0.16826,0.30594 m -1.28492,-6.50111 c -1e-5,-0.22434 0.18865,-0.70874 0.56598,-1.45319 0.38751,-0.75463 0.63735,-1.13195 0.74954,-1.13196 0.22434,-0.0918 0.55067,0.0816 0.97899,0.52009 0.4283,0.42832 0.65775,0.76485 0.68835,1.00958 -10e-6,0.32635 -0.17847,0.79545 -0.53539,1.4073 -0.35693,0.61188 -0.61697,0.91782 -0.78013,0.9178 -0.0612,-0.0306 -0.27535,-0.16315 -0.64246,-0.39771 -0.35693,-0.24473 -0.62207,-0.4283 -0.79543,-0.55068 -0.15298,-0.10197 -0.22946,-0.20904 -0.22945,-0.32123"
           id="path4036"
           inkscape:connector-curvature="0" />
        <path
           d="m 266.36205,881.68725 c -0.0204,0.73425 -0.0357,1.39711 -0.0459,1.98858 -0.0102,0.59148 -0.0408,1.09117 -0.0918,1.49908 -0.0816,0.87702 -0.24985,1.65715 -0.50479,2.3404 -0.25495,0.67306 -0.45891,1.12176 -0.61187,1.34611 -0.14278,0.22436 -0.26005,0.38752 -0.35183,0.4895 -0.11218,0.10198 -0.19886,0.13767 -0.26004,0.10708 -0.0612,-0.0408 -0.0816,-0.10198 -0.0612,-0.18357 0,-0.0204 0.0612,-0.32632 0.18356,-0.9178 0.12237,-0.60167 0.19886,-1.18294 0.22945,-1.74383 0.0306,-0.56087 0.0357,-1.3512 0.0153,-2.37099 -0.0204,-1.02998 0.005,-1.81521 0.0765,-2.3557 0.0408,-0.31612 0.10708,-0.64245 0.19886,-0.97899 0.10197,-0.33652 0.21415,-0.66795 0.33653,-0.99429 0.12237,-0.32632 0.24984,-0.63225 0.38242,-0.9178 0.14276,-0.29573 0.27023,-0.55577 0.38241,-0.78014 0.0918,-0.14275 0.17336,-0.19884 0.24475,-0.16826 0.0714,0.0306 0.10198,0.0867 0.0918,0.16826 -0.0204,0.0816 -0.0459,0.27536 -0.0765,0.58128 -0.0204,0.29575 -0.0408,0.63228 -0.0612,1.00958 -0.0204,0.36714 -0.0408,0.72916 -0.0612,1.08607 -0.0102,0.35694 -0.0153,0.62208 -0.0153,0.79543"
           id="path4038"
           inkscape:connector-curvature="0" />
        <path
           d="m 263.02736,882.36031 c -0.0102,0.27535 -0.11728,0.77504 -0.32123,1.49908 -0.19376,0.72405 -0.45381,1.51438 -0.78013,2.37099 -0.31614,0.85662 -0.59658,1.50419 -0.84132,1.94269 -0.24476,0.43851 -0.515,0.77504 -0.81073,1.00958 -0.28554,0.22436 -0.75464,0.43341 -1.4073,0.62717 -0.64247,0.18356 -1.16255,0.31103 -1.56027,0.38242 -0.38752,0.0612 -0.63226,0.0918 -0.73424,0.0918 -0.10198,-0.0102 -0.16317,-0.051 -0.18356,-0.12237 -0.0204,-0.0714 0.0102,-0.16317 0.0918,-0.27535 0.11217,-0.17336 0.39261,-0.39771 0.84132,-0.67305 0.4589,-0.28554 0.98919,-0.63736 1.59086,-1.05548 0.60167,-0.4283 1.02998,-0.80052 1.28492,-1.11666 0.25495,-0.31613 0.54049,-0.79033 0.85662,-1.4226 0.32633,-0.63226 0.61697,-1.26962 0.87192,-1.91209 0.26513,-0.64245 0.45379,-1.08096 0.56598,-1.31552 0.11217,-0.23454 0.23454,-0.34672 0.36712,-0.33653 0.11217,0.0204 0.16826,0.12239 0.16826,0.30594"
           id="path4040"
           inkscape:connector-curvature="0" />
        <path
           d="m 244.77835,886.97992 c 0.87701,10e-6 1.856,-0.0408 2.93698,-0.12237 1.09115,-0.0816 2.13133,-0.22945 3.12053,-0.44361 0.99937,-0.22434 1.90188,-0.50478 2.70752,-0.84132 0.80562,-0.33652 1.37669,-0.64245 1.71324,-0.9178 0.33651,-0.28553 0.60675,-0.60167 0.81073,-0.9484 0.20393,-0.34672 0.33651,-0.52008 0.39771,-0.52009 0.0816,10e-6 0.11216,0.11728 0.0918,0.35183 -0.0408,0.32633 -0.17338,0.76484 -0.39771,1.31552 -0.29576,0.70365 -0.5915,1.26453 -0.88721,1.68264 -0.28556,0.41811 -0.63739,0.77504 -1.05548,1.07077 -0.59149,0.39772 -1.25945,0.76484 -2.00387,1.10137 -0.65268,0.26514 -1.36652,0.50479 -2.14155,0.71894 -1.18295,0.30594 -2.3506,0.53029 -3.50295,0.67306 -1.15236,0.13257 -2.26902,0.19886 -3.34998,0.19886 -1.25434,0 -2.21294,-0.051 -2.87579,-0.15297 -1.09117,-0.17336 -1.8662,-0.49969 -2.32511,-0.97899 -0.41811,-0.37732 -0.62716,-0.88721 -0.62716,-1.52968 0,-0.25494 0.0357,-0.61696 0.10708,-1.08606 0.0714,-0.4691 0.15296,-0.9382 0.24474,-1.4073 0.10198,-0.4691 0.17846,-0.77503 0.22945,-0.91781 0.051,-0.15296 0.12748,-0.22944 0.22946,-0.22945 0.10197,10e-6 0.16316,0.0918 0.18356,0.27534 0.0306,0.17337 0.0612,0.45381 0.0918,0.84132 0.0306,0.38752 0.32633,0.73935 0.88721,1.05548 1.09116,0.52009 2.89618,0.79033 5.41504,0.81072 m -1.30022,-6.50111 c -1e-5,-0.13256 0.20905,-0.59146 0.62717,-1.37671 0.4181,-0.78522 0.67305,-1.17783 0.76483,-1.17785 0.17336,-0.0714 0.42321,0.0561 0.74954,0.38242 0.33652,0.31615 0.59147,0.59659 0.76484,0.84132 0.20395,-0.33651 0.4283,-0.71383 0.67306,-1.13195 0.25493,-0.4181 0.4232,-0.62716 0.50479,-0.62717 0.25493,10e-6 0.55577,0.18867 0.90251,0.56598 0.35691,0.36713 0.54557,0.71386 0.56598,1.04018 -2e-5,0.38752 -0.18867,0.84643 -0.56598,1.3767 -0.36714,0.5201 -0.63738,0.78015 -0.81073,0.78014 -0.11219,10e-6 -0.31614,-0.14786 -0.61187,-0.44361 -0.29575,-0.29573 -0.55579,-0.52518 -0.78013,-0.68835 -0.55069,1.11157 -0.9892,1.66735 -1.31552,1.66734 -0.0816,1e-5 -0.19887,-0.0663 -0.35183,-0.19886 -0.14277,-0.12236 -0.36713,-0.30592 -0.67305,-0.55068 -0.29575,-0.24474 -0.44362,-0.3977 -0.44361,-0.4589"
           id="path4042"
           inkscape:connector-curvature="0" />
        <path
           d="m 234.28479,886.00093 c -0.35693,0.9892 -0.68836,1.71834 -0.99429,2.18744 -0.30594,0.4691 -0.54559,0.75974 -0.71895,0.87191 -0.17336,0.11218 -0.43341,0.23455 -0.78013,0.36712 -0.34673,0.12238 -0.87702,0.30084 -1.59086,0.53539 -0.70365,0.22435 -1.12176,0.33653 -1.25433,0.33653 -0.0816,0 -0.12238,-0.0204 -0.12238,-0.0612 -0.0816,-0.11218 0.34163,-0.4793 1.26963,-1.10137 0.928,-0.62206 1.52457,-1.02997 1.78972,-1.22373 0.27534,-0.19376 0.55068,-0.4742 0.82602,-0.84133 0.28554,-0.37731 0.49459,-0.80052 0.62717,-1.26962 -0.14277,-0.0204 -0.29064,0.0102 -0.4436,0.0918 -0.14278,0.0714 -0.28555,0.10708 -0.42831,0.10707 -0.37733,-0.0102 -0.69346,-0.13256 -0.9484,-0.36712 -0.25495,-0.23454 -0.36203,-0.49459 -0.32123,-0.78013 0.0408,-0.17336 0.0969,-0.37222 0.16826,-0.59658 0.0816,-0.23454 0.24475,-0.60166 0.4895,-1.10136 0.24474,-0.49969 0.48949,-0.9127 0.73424,-1.23904 0.25494,-0.32632 0.50479,-0.48948 0.74954,-0.48949 0.41811,10e-6 0.76483,0.17847 1.04018,0.53538 0.28553,0.35694 0.4283,0.78524 0.42831,1.28493 -1e-5,0.25495 -0.0153,0.5099 -0.0459,0.76484 -0.0306,0.24475 -0.0663,0.45381 -0.10708,0.62716 -0.0306,0.16317 -0.0816,0.37733 -0.15297,0.64247 -0.0612,0.25495 -0.13257,0.4946 -0.21415,0.71894"
           id="path4044"
           inkscape:connector-curvature="0" />
        <path
           d="m 228.82386,882.36031 c -0.0102,0.27535 -0.11729,0.77504 -0.32124,1.49908 -0.19376,0.72405 -0.45381,1.51438 -0.78013,2.37099 -0.31614,0.85662 -0.59658,1.50419 -0.84132,1.94269 -0.24475,0.43851 -0.51499,0.77504 -0.81073,1.00958 -0.28554,0.22436 -0.75464,0.43341 -1.4073,0.62717 -0.64246,0.18356 -1.16255,0.31103 -1.56027,0.38242 -0.38751,0.0612 -0.63226,0.0918 -0.73424,0.0918 -0.10198,-0.0102 -0.16316,-0.051 -0.18356,-0.12237 -0.0204,-0.0714 0.0102,-0.16317 0.0918,-0.27535 0.11218,-0.17336 0.39262,-0.39771 0.84132,-0.67305 0.4589,-0.28554 0.98919,-0.63736 1.59086,-1.05548 0.60167,-0.4283 1.02998,-0.80052 1.28493,-1.11666 0.25494,-0.31613 0.54048,-0.79033 0.85662,-1.4226 0.32632,-0.63226 0.61696,-1.26962 0.87191,-1.91209 0.26514,-0.64245 0.4538,-1.08096 0.56598,-1.31552 0.11217,-0.23454 0.23454,-0.34672 0.36712,-0.33653 0.11217,0.0204 0.16826,0.12239 0.16827,0.30594"
           id="path4046"
           inkscape:connector-curvature="0" />
        <path
           d="m 221.61909,882.36031 c -0.0102,0.27535 -0.11728,0.77504 -0.32123,1.49908 -0.19376,0.72405 -0.45381,1.51438 -0.78013,2.37099 -0.31614,0.85662 -0.59658,1.50419 -0.84132,1.94269 -0.24476,0.43851 -0.515,0.77504 -0.81073,1.00958 -0.28554,0.22436 -0.75464,0.43341 -1.4073,0.62717 -0.64247,0.18356 -1.16255,0.31103 -1.56027,0.38242 -0.38752,0.0612 -0.63226,0.0918 -0.73424,0.0918 -0.10198,-0.0102 -0.16317,-0.051 -0.18356,-0.12237 -0.0204,-0.0714 0.0102,-0.16317 0.0918,-0.27535 0.11217,-0.17336 0.39261,-0.39771 0.84132,-0.67305 0.4589,-0.28554 0.98919,-0.63736 1.59086,-1.05548 0.60167,-0.4283 1.02998,-0.80052 1.28493,-1.11666 0.25494,-0.31613 0.54048,-0.79033 0.85661,-1.4226 0.32633,-0.63226 0.61697,-1.26962 0.87192,-1.91209 0.26513,-0.64245 0.45379,-1.08096 0.56598,-1.31552 0.11217,-0.23454 0.23454,-0.34672 0.36712,-0.33653 0.11217,0.0204 0.16826,0.12239 0.16826,0.30594 m -1.28492,-6.50111 c -1e-5,-0.22434 0.18865,-0.70874 0.56598,-1.45319 0.38751,-0.75463 0.63735,-1.13195 0.74954,-1.13196 0.22434,-0.0918 0.55067,0.0816 0.97899,0.52009 0.4283,0.42832 0.65775,0.76485 0.68835,1.00958 -1e-5,0.32635 -0.17847,0.79545 -0.53539,1.4073 -0.35693,0.61188 -0.61697,0.91782 -0.78013,0.9178 -0.0612,-0.0306 -0.27535,-0.16315 -0.64246,-0.39771 -0.35693,-0.24473 -0.62208,-0.4283 -0.79543,-0.55068 -0.15298,-0.10197 -0.22946,-0.20904 -0.22945,-0.32123"
           id="path4048"
           inkscape:connector-curvature="0" />
        <path
           d="m 214.72026,880.01991 c -0.10199,0.57109 -0.26006,1.07078 -0.4742,1.49908 -0.20397,0.41812 -0.41812,0.68326 -0.64246,0.79543 -0.21417,0.10198 -0.48951,0.17337 -0.82602,0.21415 -0.16318,0.25496 -0.36714,0.47421 -0.61187,0.65776 -0.24477,0.17337 -0.58639,0.29065 -1.02488,0.35183 -0.0204,0 -0.051,0.0816 -0.0918,0.24475 -0.21416,1.856 -0.61188,3.52845 -1.19314,5.01733 -0.44872,1.14215 -1.02489,2.21292 -1.72853,3.21231 -1.65206,2.23332 -3.63553,3.36018 -5.95043,3.38058 -1.20335,-0.051 -2.15685,-0.44871 -2.86049,-1.19315 -0.70365,-0.73424 -1.07587,-1.75912 -1.11667,-3.07464 -0.0102,-2.08035 0.67306,-4.33917 2.04977,-6.77645 0.26514,-0.48949 0.4232,-0.64246 0.4742,-0.45891 0.051,0.17337 0.0459,0.35183 -0.0153,0.53539 -0.90761,1.79482 -1.37161,3.34489 -1.392,4.65021 0.051,0.99938 0.40791,1.75402 1.07077,2.26391 0.67305,0.52009 1.53477,0.78524 2.58515,0.79544 1.32571,-1e-5 2.60043,-0.35183 3.82418,-1.05548 0.9076,-0.61187 1.63674,-1.37161 2.18744,-2.27921 0.80561,-1.27473 1.18293,-3.02875 1.13195,-5.26208 l 0,-0.9637 c 0.0408,-0.64245 0.36201,-0.96878 0.9637,-0.97899 0.15295,10e-6 0.30592,0.0153 0.4589,0.0459 0.15295,0.0306 0.26513,0.0459 0.33653,0.0459 0.36711,10e-6 0.65774,-0.11216 0.87191,-0.33653 0.22434,-0.23454 0.3926,-0.45889 0.5048,-0.67305 0.0408,-0.0612 0.19374,-0.0816 0.4589,-0.0612 0.17334,10e-6 0.31101,-0.0765 0.41301,-0.22945 0.10196,-0.15296 0.18354,-0.31612 0.24475,-0.4895 0.10196,-0.24473 0.20904,-0.34671 0.32123,-0.30593 0.0612,0.0204 0.0714,0.16318 0.0306,0.42831 m -6.85294,-6.36345 c -1e-5,-0.12235 0.21415,-0.58635 0.64247,-1.392 0.43849,-0.80561 0.70873,-1.20842 0.81072,-1.20844 0.16316,2e-5 0.4181,0.14789 0.76484,0.4436 0.35691,0.29576 0.59656,0.5762 0.71895,0.84133 0.22434,-0.36711 0.43849,-0.72403 0.64246,-1.07078 0.29572,-0.48947 0.47928,-0.73422 0.55068,-0.73424 0.24474,2e-5 0.55577,0.17338 0.9331,0.52009 0.36711,0.38754 0.55067,0.74446 0.55069,1.07077 -2e-5,0.37734 -0.18358,0.84644 -0.55069,1.4073 -0.37733,0.5405 -0.64757,0.81074 -0.81072,0.81073 -0.13259,10e-6 -0.32125,-0.12746 -0.56598,-0.38242 -0.33654,-0.35691 -0.61698,-0.61695 -0.84132,-0.78013 -0.5609,1.14217 -0.9994,1.71325 -1.31552,1.71323 -0.0714,2e-5 -0.34674,-0.18864 -0.82603,-0.56598 -0.46911,-0.3773 -0.70366,-0.60165 -0.70365,-0.67306 m 1.39201,-3.79359 c -1e-5,-0.10195 0.18864,-0.55066 0.56598,-1.34611 0.3875,-0.8056 0.63735,-1.20842 0.74954,-1.20844 0.28552,2e-5 0.60165,0.17338 0.94839,0.52009 0.34672,0.38754 0.52008,0.75976 0.52009,1.11666 -1e-5,0.33655 -0.16318,0.80055 -0.48949,1.392 -0.31615,0.5915 -0.5507,0.88723 -0.70365,0.88721 -0.0918,2e-5 -0.29575,-0.13765 -0.61187,-0.41301 -0.31615,-0.28552 -0.56089,-0.48947 -0.73425,-0.61187 -0.16317,-0.12235 -0.24475,-0.23453 -0.24474,-0.33653"
           id="path4050"
           inkscape:connector-curvature="0" />
        <path
           d="m 196.2265,886.00093 c -0.35693,0.9892 -0.68835,1.71834 -0.99428,2.18744 -0.30594,0.4691 -0.54559,0.75974 -0.71895,0.87191 -0.17337,0.11218 -0.43341,0.23455 -0.78013,0.36712 -0.34673,0.12238 -0.87702,0.30084 -1.59087,0.53539 -0.70365,0.22435 -1.12176,0.33653 -1.25433,0.33653 -0.0816,0 -0.12237,-0.0204 -0.12237,-0.0612 -0.0816,-0.11218 0.34162,-0.4793 1.26963,-1.10137 0.928,-0.62206 1.52457,-1.02997 1.78972,-1.22373 0.27533,-0.19376 0.55067,-0.4742 0.82602,-0.84133 0.28553,-0.37731 0.49459,-0.80052 0.62717,-1.26962 -0.14278,-0.0204 -0.29065,0.0102 -0.44361,0.0918 -0.14277,0.0714 -0.28554,0.10708 -0.42831,0.10707 -0.37732,-0.0102 -0.69345,-0.13256 -0.9484,-0.36712 -0.25494,-0.23454 -0.36202,-0.49459 -0.32123,-0.78013 0.0408,-0.17336 0.0969,-0.37222 0.16827,-0.59658 0.0816,-0.23454 0.24474,-0.60166 0.48949,-1.10136 0.24475,-0.49969 0.48949,-0.9127 0.73425,-1.23904 0.25494,-0.32632 0.50478,-0.48948 0.74954,-0.48949 0.4181,10e-6 0.76483,0.17847 1.04017,0.53538 0.28554,0.35694 0.42831,0.78524 0.42831,1.28493 0,0.25495 -0.0153,0.5099 -0.0459,0.76484 -0.0306,0.24475 -0.0663,0.45381 -0.10707,0.62716 -0.0306,0.16317 -0.0816,0.37733 -0.15297,0.64247 -0.0612,0.25495 -0.13258,0.4946 -0.21416,0.71894"
           id="path4052"
           inkscape:connector-curvature="0" />
        <path
           d="m 184.11149,885.12902 c -0.0408,-0.14277 -0.0612,-0.35183 -0.0612,-0.62717 0,-0.30593 0.0357,-0.55578 0.10708,-0.74954 0.0714,-0.21415 0.20395,-0.40281 0.39771,-0.56598 0.39772,-0.30593 0.87701,-0.75463 1.43789,-1.34611 0.50989,-0.56088 0.80053,-0.928 0.87192,-1.10137 -0.38752,-0.19375 -0.67816,-0.34672 -0.87192,-0.4589 -0.66286,-0.31612 -1.18804,-0.47419 -1.57556,-0.4742 -0.33653,10e-6 -0.65776,0.17847 -0.96369,0.53539 -0.31614,0.36713 -0.5048,0.53029 -0.56598,0.4895 -0.12238,-0.0306 -0.15297,-0.13767 -0.0918,-0.32124 0.0816,-0.20395 0.24474,-0.49968 0.48949,-0.88721 0.24475,-0.38751 0.39262,-0.61696 0.44361,-0.68835 0.36712,-0.4181 0.76483,-0.62716 1.19314,-0.62717 0.27534,10e-6 0.71385,0.12238 1.31552,0.36713 0.59147,0.25495 1.12686,0.38242 1.60616,0.38241 0.47929,1e-5 0.9127,-0.16825 1.30022,-0.50479 0.0816,-0.051 0.16826,-0.0714 0.26005,-0.0612 0.0816,0.0408 0.12237,0.11219 0.12237,0.21416 0,0.0918 -0.0204,0.18866 -0.0612,0.29064 -0.0918,0.24475 -0.16827,0.44871 -0.22945,0.61187 -0.051,0.15297 -0.0918,0.27024 -0.12237,0.35182 -0.17337,0.40792 -0.31614,0.66796 -0.42831,0.78013 -0.18356,0.0408 -0.38242,0.16827 -0.59657,0.38242 l -1.57557,1.71324 -1.62145,1.75912 -0.42831,0.5048 c -0.0306,0.0204 -0.14787,0.0306 -0.35182,0.0306 m 1.4073,10.44767 c -1e-5,0.11217 0.0765,0.21924 0.22945,0.32123 0.17336,0.12237 0.4385,0.30083 0.79543,0.53539 0.36712,0.24473 0.58127,0.38241 0.64246,0.41301 0.16316,-10e-6 0.42321,-0.30595 0.78013,-0.9178 0.35692,-0.61188 0.53539,-1.08098 0.53539,-1.4073 -0.0306,-0.24476 -0.26005,-0.58639 -0.68835,-1.02489 -0.42832,-0.42831 -0.75465,-0.59658 -0.979,-0.50479 -0.11217,-10e-6 -0.36202,0.37221 -0.74954,1.11666 -0.37732,0.75463 -0.56598,1.24413 -0.56597,1.46849"
           id="path4054"
           inkscape:connector-curvature="0" />
        <path
           d="m 184.29505,886.00093 c -0.35693,0.9892 -0.68836,1.71834 -0.99429,2.18744 -0.30594,0.4691 -0.54559,0.75974 -0.71895,0.87191 -0.17336,0.11218 -0.43341,0.23455 -0.78013,0.36712 -0.34673,0.12238 -0.87702,0.30084 -1.59086,0.53539 -0.70365,0.22435 -1.12176,0.33653 -1.25433,0.33653 -0.0816,0 -0.12238,-0.0204 -0.12238,-0.0612 -0.0816,-0.11218 0.34163,-0.4793 1.26963,-1.10137 0.928,-0.62206 1.52457,-1.02997 1.78972,-1.22373 0.27534,-0.19376 0.55068,-0.4742 0.82602,-0.84133 0.28554,-0.37731 0.49459,-0.80052 0.62717,-1.26962 -0.14277,-0.0204 -0.29064,0.0102 -0.4436,0.0918 -0.14278,0.0714 -0.28555,0.10708 -0.42831,0.10707 -0.37733,-0.0102 -0.69346,-0.13256 -0.9484,-0.36712 -0.25495,-0.23454 -0.36203,-0.49459 -0.32123,-0.78013 0.0408,-0.17336 0.0969,-0.37222 0.16826,-0.59658 0.0816,-0.23454 0.24475,-0.60166 0.4895,-1.10136 0.24474,-0.49969 0.48949,-0.9127 0.73424,-1.23904 0.25494,-0.32632 0.50479,-0.48948 0.74954,-0.48949 0.41811,10e-6 0.76483,0.17847 1.04018,0.53538 0.28553,0.35694 0.4283,0.78524 0.42831,1.28493 -1e-5,0.25495 -0.0153,0.5099 -0.0459,0.76484 -0.0306,0.24475 -0.0663,0.45381 -0.10708,0.62716 -0.0306,0.16317 -0.0816,0.37733 -0.15297,0.64247 -0.0612,0.25495 -0.13257,0.4946 -0.21415,0.71894"
           id="path4056"
           inkscape:connector-curvature="0" />
        <path
           d="m 179.47657,877.09823 c -0.0204,0.73425 -0.0357,1.39711 -0.0459,1.98858 -0.0102,0.59148 -0.0408,1.09117 -0.0918,1.49908 -0.0816,0.87701 -0.24985,1.65715 -0.50479,2.3404 -0.25495,0.67306 -0.4589,1.12176 -0.61187,1.34611 -0.14277,0.22435 -0.26004,0.38752 -0.35182,0.4895 -0.11218,0.10198 -0.19886,0.13767 -0.26005,0.10707 -0.0612,-0.0408 -0.0816,-0.10197 -0.0612,-0.18356 -1e-5,-0.0204 0.0612,-0.32633 0.18356,-0.9178 0.12237,-0.60167 0.19885,-1.18295 0.22945,-1.74383 0.0306,-0.56088 0.0357,-1.35121 0.0153,-2.37099 -0.0204,-1.02998 0.005,-1.81521 0.0765,-2.3557 0.0408,-0.31613 0.10707,-0.64246 0.19886,-0.97899 0.10197,-0.33652 0.21415,-0.66795 0.33652,-0.99429 0.12238,-0.32632 0.24985,-0.63225 0.38242,-0.91781 0.14277,-0.29572 0.27024,-0.55576 0.38242,-0.78013 0.0918,-0.14276 0.17336,-0.19884 0.24475,-0.16826 0.0714,0.0306 0.10197,0.0867 0.0918,0.16826 -0.0204,0.0816 -0.0459,0.27535 -0.0765,0.58128 -0.0204,0.29575 -0.0408,0.63227 -0.0612,1.00958 -0.0204,0.36713 -0.0408,0.72916 -0.0612,1.08607 -0.0102,0.35693 -0.0153,0.62208 -0.0153,0.79543"
           id="path4058"
           inkscape:connector-curvature="0" />
        <path
           d="m 171.21634,884.44067 c -0.0306,1.23394 0.20395,2.01917 0.70365,2.35569 0.27533,0.18357 0.55068,0.24475 0.82602,0.18356 0.27534,-0.0612 0.48439,-0.20395 0.62717,-0.4283 0.15296,-0.22435 0.28043,-0.4844 0.38241,-0.78014 0.10198,-0.30593 0.19886,-0.4589 0.29064,-0.4589 0.11217,0 0.15806,0.10708 0.13767,0.32123 -0.0102,0.36713 -0.12747,0.9637 -0.35182,1.78972 -0.21416,0.82603 -0.5099,1.50418 -0.88721,2.03447 -0.37733,0.53028 -0.83623,0.81072 -1.37671,0.84132 -0.55068,-0.0204 -0.97899,-0.33143 -1.28492,-0.9331 -0.27535,-0.59148 -0.40282,-1.35631 -0.38242,-2.29452 0.0204,-0.68325 0.11217,-1.77951 0.27534,-3.28879 0.17336,-1.50927 0.39771,-3.12563 0.67305,-4.84907 0.16317,-0.49968 0.4946,-1.38179 0.99429,-2.64634 0.051,-0.12236 0.10198,-0.17334 0.15297,-0.15296 0.0612,0.0204 0.0918,0.0714 0.0918,0.15296 -0.0306,0.62208 -0.15807,1.81013 -0.38242,3.56414 -0.22435,1.75404 -0.38752,3.28371 -0.48949,4.58903 m 2.14154,-9.23923 c 0,-0.22434 0.18865,-0.70874 0.56598,-1.45319 0.38751,-0.75463 0.63736,-1.13195 0.74954,-1.13196 0.22435,-0.0918 0.55068,0.0816 0.97899,0.52009 0.4283,0.42832 0.65775,0.76485 0.68835,1.00958 0,0.32635 -0.17847,0.79545 -0.53538,1.4073 -0.35693,0.61188 -0.61698,0.91782 -0.78014,0.9178 -0.0612,-0.0306 -0.27534,-0.16315 -0.64246,-0.39771 -0.35693,-0.24473 -0.62207,-0.42829 -0.79543,-0.55068 -0.15297,-0.10197 -0.22945,-0.20904 -0.22945,-0.32123"
           id="path4060"
           inkscape:connector-curvature="0" />
        <path
           d="m 163.90449,885.49614 c 0.0408,0.20396 0.0255,0.42831 -0.0459,0.67306 -0.0714,0.24475 -0.18866,0.52009 -0.35182,0.82602 -0.15298,0.29574 -0.36203,0.57108 -0.62717,0.82602 -0.17337,0.16317 -0.31104,0.24475 -0.41301,0.24475 -0.0612,0 -0.20396,-0.0867 -0.42831,-0.26004 -0.21416,-0.18356 -0.41302,-0.34673 -0.59657,-0.4895 -0.17337,-0.15296 -0.32634,-0.29063 -0.4589,-0.41301 -0.12238,-0.12237 -0.18357,-0.22435 -0.18356,-0.30593 0.13256,-0.27534 0.22944,-0.4844 0.29063,-0.62717 0.20396,-0.4589 0.37732,-0.82092 0.52009,-1.08607 0.15296,-0.26514 0.38751,-0.65775 0.70365,-1.17785 0.18356,0.15298 0.40791,0.33654 0.67306,0.55068 0.27533,0.20397 0.48439,0.39773 0.62717,0.58128 0.15296,0.18357 0.24983,0.40282 0.29063,0.65776 m 4.61962,-1.49908 c -0.18357,3.20212 -1.11158,5.95553 -2.78401,8.26024 -1.65205,2.23332 -3.63553,3.36018 -5.95043,3.38058 -1.20334,-0.051 -2.15684,-0.44871 -2.86049,-1.19315 -0.70365,-0.73424 -1.07587,-1.75912 -1.11666,-3.07464 -0.0102,-2.08036 0.67306,-4.33917 2.04976,-6.77646 0.26514,-0.48949 0.42321,-0.64245 0.4742,-0.4589 0.051,0.17337 0.0459,0.35183 -0.0153,0.53539 -0.9076,1.79482 -1.3716,3.34489 -1.392,4.65021 0.0408,0.97899 0.38752,1.72343 1.04018,2.23332 0.66286,0.50989 1.53477,0.78523 2.61574,0.82602 1.32571,0 2.60044,-0.35182 3.82419,-1.05547 1.21353,-0.80563 2.05995,-1.8815 2.53926,-3.22761 0.18354,-0.4691 0.27532,-1.09117 0.27534,-1.86621 -2e-5,-0.29573 -0.005,-0.66795 -0.0153,-1.11666 -1e-5,-0.45889 -1e-5,-0.78522 0,-0.97899 0.0408,-0.56087 0.17335,-1.17784 0.39771,-1.8509 0.22434,-0.68325 0.40791,-1.17784 0.55069,-1.48379 0.15295,-0.30592 0.28042,-0.45889 0.38242,-0.4589 0.0714,10e-6 0.10196,0.0816 0.0918,0.24475 -0.0102,0.15297 -0.0255,0.45381 -0.0459,0.9025 -0.0204,0.44872 -0.0408,1.28494 -0.0612,2.50867"
           id="path4062"
           inkscape:connector-curvature="0" />
      </g>
      <g
         transform="matrix(0.84081221,0,0,0.84081221,-10.634776,165.99937)"
         style="font-size:47.69564819px;font-style:normal;font-variant:normal;font-weight:normal;font-stretch:normal;line-height:125%;letter-spacing:0px;word-spacing:0px;fill:#ffffff;fill-opacity:1;stroke:none;font-family:IranNastaliq;-inkscape-font-specification:IranNastaliq"
         id="text2989">
        <g
           id="text3107"
           style="font-size:43.09994125px;line-height:125%;fill:#ffffff;font-family:IranNastaliq;-inkscape-font-specification:IranNastaliq">
          <path
             id="path3114"
             style=""
             d="m 356.00196,930.32818 c -0.0281,1.01016 -0.0491,1.92211 -0.0631,2.73583 -0.014,0.81375 -0.0561,1.50121 -0.12627,2.0624 -0.11224,1.20658 -0.34374,2.27987 -0.69448,3.21987 -0.35075,0.92598 -0.63135,1.5433 -0.8418,1.85195 -0.19642,0.30866 -0.35776,0.53314 -0.48403,0.67344 -0.15433,0.1403 -0.27358,0.1894 -0.35776,0.14731 -0.0842,-0.0561 -0.11224,-0.14029 -0.0842,-0.25254 0,-0.0281 0.0842,-0.44895 0.25254,-1.26269 0.16835,-0.82776 0.27358,-1.62747 0.31567,-2.39912 0.0421,-0.77164 0.0491,-1.85896 0.021,-3.26196 -0.0281,-1.41701 0.007,-2.49731 0.10522,-3.24091 0.0561,-0.43491 0.14731,-0.88387 0.27358,-1.34687 0.1403,-0.46298 0.29463,-0.91895 0.46299,-1.36792 0.16836,-0.44894 0.34373,-0.86984 0.52612,-1.26269 0.19642,-0.40686 0.37179,-0.76462 0.52613,-1.07329 0.12626,-0.19641 0.2385,-0.27357 0.33672,-0.2315 0.0982,0.0421 0.14029,0.11927 0.12626,0.2315 -0.0281,0.11225 -0.0631,0.37882 -0.10522,0.7997 -0.0281,0.40689 -0.0561,0.86987 -0.0842,1.38897 -0.0281,0.50509 -0.0561,1.00315 -0.0842,1.49418 -0.014,0.49106 -0.0211,0.85584 -0.021,1.09434" />
          <path
             id="path3116"
             style=""
             d="m 347.68924,929.90728 c 0.0982,-0.29462 0.30865,-0.34372 0.63134,-0.14731 1.80986,1.09434 2.71479,2.56047 2.7148,4.39838 -0.0702,1.37494 -0.36479,2.58151 -0.88389,3.61972 -0.50508,1.02419 -1.02419,1.80285 -1.55732,2.33598 -0.91195,0.92598 -2.23076,1.60643 -3.95644,2.04136 -0.21045,0.0421 -0.37881,0.0631 -0.50508,0.0631 -0.16836,0 -0.25254,-0.0421 -0.25254,-0.12627 0,-0.15433 0.25254,-0.41388 0.75762,-0.77866 1.01015,-0.70149 1.95717,-1.5012 2.84106,-2.39912 0.85582,-0.85582 1.28373,-1.42403 1.28374,-1.70463 -1e-5,-0.72955 -0.79971,-1.74672 -2.39912,-3.05151 -0.29463,-0.2385 -0.38583,-0.53313 -0.27358,-0.88389 0.42089,-0.81372 0.95403,-1.93612 1.59941,-3.36718" />
          <path
             id="path3118"
             style=""
             d="m 342.61742,926.1192 c -0.0281,1.01016 -0.0491,1.92211 -0.0631,2.73584 -0.014,0.81374 -0.0561,1.50121 -0.12626,2.06239 -0.11225,1.20658 -0.34374,2.27987 -0.69449,3.21987 -0.35075,0.92598 -0.63135,1.5433 -0.84179,1.85195 -0.19642,0.30866 -0.35777,0.53314 -0.48403,0.67344 -0.15434,0.1403 -0.27359,0.18941 -0.35777,0.14731 -0.0842,-0.0561 -0.11224,-0.14029 -0.0842,-0.25253 0,-0.0281 0.0842,-0.44896 0.25254,-1.2627 0.16836,-0.82776 0.27358,-1.62746 0.31567,-2.39912 0.0421,-0.77164 0.0491,-1.85895 0.0211,-3.26195 -0.0281,-1.41702 0.007,-2.49732 0.10522,-3.24092 0.0561,-0.43491 0.14732,-0.88387 0.27359,-1.34687 0.14029,-0.46297 0.29462,-0.91895 0.46299,-1.36792 0.16835,-0.44894 0.34373,-0.86984 0.52612,-1.26269 0.19641,-0.40685 0.37179,-0.76462 0.52612,-1.07329 0.12626,-0.1964 0.2385,-0.27357 0.33672,-0.2315 0.0982,0.0421 0.14029,0.11928 0.12627,0.2315 -0.0281,0.11225 -0.0631,0.37882 -0.10523,0.7997 -0.0281,0.40689 -0.0561,0.86987 -0.0842,1.38897 -0.0281,0.50509 -0.0561,1.00315 -0.0842,1.49418 -0.014,0.49106 -0.0211,0.85584 -0.021,1.09434" />
          <path
             id="path3120"
             style=""
             d="m 338.02963,931.25415 c -0.014,0.37882 -0.16136,1.06629 -0.44195,2.0624 -0.26657,0.99614 -0.62434,2.08345 -1.07329,3.26196 -0.43493,1.17852 -0.82075,2.06942 -1.15746,2.6727 -0.33673,0.60329 -0.70852,1.06628 -1.11538,1.38897 -0.39285,0.30866 -1.03822,0.59627 -1.93613,0.86284 -0.88389,0.25254 -1.59942,0.42791 -2.14658,0.52612 -0.53314,0.0842 -0.86986,0.12627 -1.01016,0.12627 -0.1403,-0.014 -0.22448,-0.0702 -0.25254,-0.16836 -0.0281,-0.0982 0.014,-0.22448 0.12627,-0.37881 0.15433,-0.23851 0.54015,-0.54717 1.15747,-0.92597 0.63135,-0.39284 1.3609,-0.87687 2.18867,-1.4521 0.82776,-0.58926 1.41702,-1.10135 1.76777,-1.53628 0.35074,-0.43492 0.74358,-1.08731 1.17852,-1.95717 0.44895,-0.86985 0.8488,-1.74672 1.19955,-2.63062 0.36478,-0.88387 0.62433,-1.48716 0.77867,-1.80986 0.15432,-0.32267 0.32268,-0.477 0.50507,-0.46298 0.15432,0.0281 0.23149,0.16837 0.2315,0.42089" />
          <path
             id="path3122"
             style=""
             d="m 327.94912,935.14746 c -10e-6,0.60329 -0.10523,1.28374 -0.31568,2.04135 -0.19642,0.74359 -0.45597,1.41703 -0.77866,2.02031 -0.50508,0.96807 -1.02419,1.70464 -1.55732,2.20972 -0.53314,0.50507 -1.12941,0.75761 -1.78881,0.75761 -1.03822,0 -1.55733,-0.63134 -1.55733,-1.89404 0,-0.43492 0.0702,-0.89791 0.21045,-1.38896 0.18239,-0.5191 0.40687,-1.00314 0.67344,-1.4521 0.26657,-0.44895 0.49104,-0.82776 0.67344,-1.13642 -0.1824,-0.0561 -0.29464,-0.0912 -0.33672,-0.10523 -0.0421,-0.014 -0.0772,-0.021 -0.10523,-0.021 -0.0281,-0.11224 0.0631,-0.41388 0.27359,-0.90493 l 1.49418,-3.38823 c 0.1403,-0.35074 0.30164,-0.52611 0.48404,-0.52612 0.14029,10e-6 0.35074,0.0912 0.63134,0.27358 0.29463,0.16837 0.54015,0.3227 0.73657,0.46299 0.46299,0.42091 0.78567,0.82777 0.96807,1.2206 0.19641,0.39285 0.29462,1.00315 0.29463,1.83091 m -2.04136,3.32509 c 0,-0.40686 -0.1403,-0.73657 -0.42089,-0.98911 -0.14031,-0.14029 -0.34374,-0.28761 -0.61031,-0.44194 -0.25254,-0.16836 -0.46299,-0.26656 -0.63134,-0.29463 -0.12628,1e-5 -0.35075,0.24553 -0.67344,0.73657 -0.30866,0.49105 -0.46299,0.90494 -0.46299,1.24165 0,0.63135 0.37881,0.94702 1.13643,0.94702 0.33671,0 0.69447,-0.11925 1.07329,-0.35776 0.39283,-0.25254 0.58925,-0.53314 0.58925,-0.8418" />
          <path
             id="path3124"
             style=""
             d="m 318.47893,924.77233 c -0.0842,-0.33672 -0.29464,-0.61732 -0.63135,-0.8418 -0.33672,-0.22447 -0.70851,-0.33671 -1.11538,-0.33672 -0.39284,1e-5 -0.77866,0.14732 -1.15747,0.44195 -0.36478,0.2806 -0.5612,0.60329 -0.58926,0.96806 0.15433,0.29463 0.35075,0.51911 0.58926,0.67344 0.25254,0.1403 0.57523,0.22448 0.96807,0.25254 0.39283,0.0281 0.77164,-0.0561 1.13642,-0.25254 0.3788,-0.19642 0.64537,-0.49806 0.79971,-0.90493 m -3.57764,4.35629 -0.6103,-0.12627 c -0.19642,-0.78568 -0.30866,-2.17464 -0.33672,-4.16689 -0.0281,-2.00627 0.0702,-3.50747 0.29463,-4.50361 0.21045,-1.01014 0.41389,-1.5994 0.6103,-1.76777 -0.0842,0.14031 -0.11224,0.35076 -0.0842,0.63135 0.0421,0.35076 0.0772,0.78568 0.10523,1.30478 l 0,1.76777 c 1.61344,-1.76776 3.57061,-4.08971 5.87152,-6.96586 2.31493,-2.87611 4.05464,-5.05075 5.21914,-6.52391 1.16447,-1.47312 2.1185,-2.72179 2.8621,-3.74599 0.19641,0.0561 0.17536,0.42793 -0.0631,1.11538 -0.22449,0.67345 -0.47002,1.27674 -0.73657,1.80986 -0.75763,1.22062 -2.44122,3.47944 -5.05078,6.77645 -2.60957,3.29705 -4.37734,5.45064 -5.30331,6.46078 0.58925,0.0702 1.07329,0.30867 1.4521,0.71553 0.3788,0.39285 0.51209,1.10136 0.39985,2.12554 -0.11224,1.02418 -0.39986,1.9712 -0.86284,2.84106 -0.46299,0.86985 -0.88389,1.44508 -1.26269,1.72568 -0.37881,0.2806 -0.75762,0.45597 -1.13643,0.52612 -0.37881,0.0842 -0.83478,0.0842 -1.36792,0" />
          <path
             id="path3126"
             style=""
             d="m 313.34397,919.80573 1.6415,-3.66181 c 0.0842,-0.14027 0.16834,-0.20341 0.25254,-0.1894 0.0982,0.014 0.14729,0.14734 0.14731,0.39985 -0.0982,0.77167 -0.18942,1.54332 -0.27358,2.31494 -0.0842,0.75764 -0.14734,1.52227 -0.18941,2.29389 l -0.3788,9.87006 c -0.0702,2.38509 -0.42092,4.88242 -1.05225,7.49198 -0.47703,1.85195 -1.15047,3.53554 -2.02031,5.05077 -2.27286,4.30718 -5.30332,6.44675 -9.09139,6.41869 -1.80987,0 -3.17077,-0.5612 -4.08271,-1.68359 -0.89792,-1.1224 -1.34688,-2.53942 -1.34687,-4.25107 0.0281,-1.19254 0.21044,-2.3921 0.54716,-3.59867 0.35075,-1.2206 0.77165,-2.36404 1.2627,-3.43032 0.49104,-1.06627 0.89089,-1.87299 1.19955,-2.42016 0.32269,-0.54716 0.56821,-0.79269 0.73658,-0.73657 0.19641,0.0561 0.24551,0.19642 0.14731,0.42089 -0.0982,0.21046 -0.36478,0.78569 -0.79971,1.72568 -0.4209,0.92599 -0.72254,1.64853 -0.90493,2.16763 -0.39284,1.15046 -0.58926,2.12554 -0.58925,2.92524 -1e-5,1.58538 0.57522,2.74986 1.72568,3.49345 0.94,0.57523 2.10448,0.86284 3.49345,0.86284 0.74358,0 1.51522,-0.0982 2.31494,-0.29463 0.81372,-0.19642 1.56432,-0.52612 2.2518,-0.98911 1.80985,-1.20657 3.07254,-2.96031 3.78808,-5.26122 0.49103,-1.58538 0.73656,-3.47942 0.73657,-5.68212 -1e-5,-1.75373 0.007,-3.36717 0.0211,-4.84033 0.028,-1.48715 0.0561,-3.0094 0.0842,-4.56674 0.0421,-1.5573 0.0912,-2.53939 0.14731,-2.94628 0.0701,-0.42088 0.1473,-0.71551 0.2315,-0.88389" />
          <path
             id="path3128"
             style=""
             d="m 293.26713,936.26284 c -0.49105,1.36091 -0.94703,2.36404 -1.36792,3.00942 -0.4209,0.64538 -0.7506,1.04523 -0.98911,1.19956 -0.23851,0.15433 -0.59627,0.32269 -1.07329,0.50507 -0.47702,0.16836 -1.20657,0.41389 -2.18866,0.73657 -0.96807,0.30866 -1.5433,0.46299 -1.72569,0.46299 -0.11224,0 -0.16836,-0.0281 -0.16836,-0.0842 -0.11223,-0.15433 0.47001,-0.6594 1.74673,-1.51523 1.27672,-0.85582 2.09747,-1.41702 2.46225,-1.68359 0.37881,-0.26657 0.75761,-0.65239 1.13643,-1.15747 0.39283,-0.5191 0.68044,-1.10134 0.86284,-1.74673 -0.19643,-0.0281 -0.39986,0.014 -0.6103,0.12627 -0.19643,0.0982 -0.39285,0.14732 -0.58926,0.14732 -0.51911,-0.014 -0.95404,-0.18239 -1.30478,-0.50508 -0.35076,-0.32268 -0.49807,-0.68044 -0.44195,-1.07329 0.0561,-0.2385 0.13328,-0.51208 0.2315,-0.82075 0.11223,-0.32268 0.33671,-0.82776 0.67343,-1.51523 0.33672,-0.68746 0.67344,-1.25567 1.01016,-1.70464 0.35074,-0.44894 0.69447,-0.67342 1.0312,-0.67344 0.57522,2e-5 1.05224,0.24554 1.43105,0.73658 0.39283,0.49105 0.58925,1.08031 0.58926,1.76777 -1e-5,0.35075 -0.0211,0.7015 -0.0631,1.05224 -0.0421,0.33673 -0.0912,0.62434 -0.14731,0.86284 -0.0421,0.22449 -0.11225,0.51912 -0.21045,0.88389 -0.0842,0.35075 -0.1824,0.68046 -0.29463,0.98911" />
          <path
             id="path3130"
             style=""
             d="m 285.75411,931.25415 c -0.014,0.37882 -0.16135,1.06629 -0.44194,2.0624 -0.26658,0.99614 -0.62434,2.08345 -1.07329,3.26196 -0.43493,1.17852 -0.82076,2.06942 -1.15747,2.6727 -0.33672,0.60329 -0.70851,1.06628 -1.11538,1.38897 -0.39284,0.30866 -1.03822,0.59627 -1.93613,0.86284 -0.88388,0.25254 -1.59941,0.42791 -2.14658,0.52612 -0.53313,0.0842 -0.86985,0.12627 -1.01015,0.12627 -0.1403,-0.014 -0.22448,-0.0702 -0.25254,-0.16836 -0.0281,-0.0982 0.014,-0.22448 0.12627,-0.37881 0.15433,-0.23851 0.54015,-0.54717 1.15747,-0.92597 0.63134,-0.39284 1.3609,-0.87687 2.18867,-1.4521 0.82776,-0.58926 1.41702,-1.10135 1.76777,-1.53628 0.35074,-0.43492 0.74358,-1.08731 1.17851,-1.95717 0.44895,-0.86985 0.84881,-1.74672 1.19956,-2.63062 0.36477,-0.88387 0.62433,-1.48716 0.77866,-1.80986 0.15432,-0.32267 0.32268,-0.477 0.50508,-0.46298 0.15432,0.0281 0.23149,0.16837 0.23149,0.42089" />
          <path
             id="path3132"
             style=""
             d="m 275.84197,931.25415 c -0.014,0.37882 -0.16135,1.06629 -0.44194,2.0624 -0.26658,0.99614 -0.62434,2.08345 -1.07329,3.26196 -0.43494,1.17852 -0.82076,2.06942 -1.15747,2.6727 -0.33672,0.60329 -0.70852,1.06628 -1.11538,1.38897 -0.39284,0.30866 -1.03822,0.59627 -1.93613,0.86284 -0.88389,0.25254 -1.59941,0.42791 -2.14658,0.52612 -0.53314,0.0842 -0.86985,0.12627 -1.01015,0.12627 -0.1403,-0.014 -0.22448,-0.0702 -0.25254,-0.16836 -0.0281,-0.0982 0.014,-0.22448 0.12627,-0.37881 0.15433,-0.23851 0.54015,-0.54717 1.15747,-0.92597 0.63134,-0.39284 1.3609,-0.87687 2.18866,-1.4521 0.82777,-0.58926 1.41702,-1.10135 1.76778,-1.53628 0.35074,-0.43492 0.74358,-1.08731 1.17851,-1.95717 0.44895,-0.86985 0.8488,-1.74672 1.19956,-2.63062 0.36477,-0.88387 0.62432,-1.48716 0.77866,-1.80986 0.15432,-0.32267 0.32268,-0.477 0.50508,-0.46298 0.15432,0.0281 0.23148,0.16837 0.23149,0.42089 m -1.76777,-8.94408 c -1e-5,-0.30863 0.25955,-0.97506 0.77866,-1.99926 0.53313,-1.03819 0.87686,-1.5573 1.0312,-1.55732 0.30865,-0.12625 0.75761,0.11226 1.34687,0.71552 0.58925,0.58928 0.90492,1.05227 0.94702,1.38897 -1e-5,0.44897 -0.24553,1.09435 -0.73657,1.93613 -0.49105,0.84181 -0.84882,1.26271 -1.07329,1.26269 -0.0842,-0.0421 -0.37881,-0.22446 -0.88388,-0.54717 -0.49106,-0.3367 -0.85584,-0.58924 -1.09434,-0.75761 -0.21045,-0.14028 -0.31568,-0.2876 -0.31567,-0.44195" />
          <path
             id="path3134"
             style=""
             d="m 266.35072,928.03428 c -0.14032,0.78569 -0.35779,1.47316 -0.65239,2.0624 -0.28062,0.57524 -0.57525,0.94002 -0.88389,1.09434 -0.29465,0.14031 -0.67346,0.23852 -1.13642,0.29463 -0.2245,0.35076 -0.5051,0.6524 -0.8418,0.90493 -0.33674,0.23852 -0.80674,0.39986 -1.41001,0.48403 -0.0281,1e-5 -0.0702,0.11225 -0.12627,0.33672 -0.29464,2.55345 -0.84181,4.85436 -1.6415,6.90272 -0.61733,1.57136 -1.41002,3.0445 -2.37807,4.41943 -2.27286,3.07255 -5.00168,4.62286 -8.18646,4.65092 -1.65554,-0.0702 -2.96734,-0.61732 -3.9354,-1.6415 -0.96806,-1.01016 -1.48016,-2.42017 -1.53628,-4.23002 -0.014,-2.86211 0.92598,-5.96973 2.82002,-9.32289 0.36478,-0.67343 0.58224,-0.88388 0.65239,-0.63135 0.0702,0.23852 0.0631,0.48404 -0.021,0.73657 -1.24867,2.46928 -1.88703,4.60182 -1.91509,6.39765 0.0701,1.37493 0.5612,2.41315 1.47314,3.11465 0.92598,0.71552 2.1115,1.0803 3.55659,1.09433 1.82388,0 3.57762,-0.48403 5.26122,-1.4521 1.24865,-0.84179 2.25179,-1.88702 3.00942,-3.13569 1.10835,-1.75373 1.62746,-4.16688 1.55733,-7.23944 l 0,-1.32583 c 0.0561,-0.88387 0.49804,-1.33283 1.32582,-1.34687 0.21044,10e-6 0.42088,0.0211 0.63135,0.0631 0.21043,0.0421 0.36476,0.0631 0.46299,0.0631 0.50506,10e-6 0.90491,-0.15432 1.19956,-0.46299 0.30864,-0.32268 0.54013,-0.63133 0.69448,-0.92598 0.0561,-0.0842 0.26655,-0.11222 0.63135,-0.0842 0.23848,10e-6 0.42789,-0.10522 0.56821,-0.31568 0.14028,-0.21043 0.25251,-0.43491 0.33672,-0.67343 0.14027,-0.33671 0.28759,-0.47701 0.44194,-0.4209 0.0842,0.0281 0.0982,0.22449 0.0421,0.58925 m -9.42811,-8.75467 c -2e-5,-0.16834 0.29461,-0.8067 0.88388,-1.91509 0.60327,-1.10833 0.97507,-1.66252 1.11538,-1.66254 0.22447,2e-5 0.57521,0.20346 1.05225,0.6103 0.49103,0.40689 0.82073,0.79271 0.98911,1.15747 0.30864,-0.50505 0.60327,-0.9961 0.88388,-1.47314 0.40685,-0.67341 0.65939,-1.01013 0.75762,-1.01016 0.3367,3e-5 0.76461,0.23854 1.28374,0.71553 0.50505,0.53316 0.75759,1.02421 0.75761,1.47314 -2e-5,0.51913 -0.25256,1.16451 -0.75761,1.93613 -0.51913,0.74361 -0.89092,1.1154 -1.11538,1.11538 -0.18241,2e-5 -0.44196,-0.17535 -0.77866,-0.52612 -0.46301,-0.49103 -0.84883,-0.84879 -1.15747,-1.07329 -0.77167,1.57137 -1.37495,2.35705 -1.80986,2.35703 -0.0982,2e-5 -0.47704,-0.25954 -1.13643,-0.77867 -0.64539,-0.51908 -0.96808,-0.82774 -0.96806,-0.92597 m 1.91508,-5.21913 c -1e-5,-0.14028 0.25954,-0.75759 0.77866,-1.85196 0.53312,-1.10833 0.87686,-1.66251 1.0312,-1.66254 0.39282,3e-5 0.82775,0.23854 1.30479,0.71552 0.477,0.53317 0.7155,1.04526 0.71552,1.53628 -2e-5,0.46302 -0.22449,1.10138 -0.67343,1.91509 -0.43495,0.81376 -0.75764,1.22063 -0.96807,1.2206 -0.12629,3e-5 -0.40688,-0.18938 -0.84179,-0.56821 -0.43495,-0.39281 -0.77167,-0.67341 -1.01016,-0.8418 -0.22449,-0.16833 -0.33673,-0.32266 -0.33672,-0.46298" />
          <path
             id="path3136"
             style=""
             d="m 240.90745,936.26284 c -0.49105,1.36091 -0.94703,2.36404 -1.36792,3.00942 -0.4209,0.64538 -0.7506,1.04523 -0.98911,1.19956 -0.23851,0.15433 -0.59627,0.32269 -1.07329,0.50507 -0.47702,0.16836 -1.20657,0.41389 -2.18867,0.73657 -0.96806,0.30866 -1.54329,0.46299 -1.72568,0.46299 -0.11224,0 -0.16836,-0.0281 -0.16836,-0.0842 -0.11223,-0.15433 0.47001,-0.6594 1.74673,-1.51523 1.27672,-0.85582 2.09747,-1.41702 2.46225,-1.68359 0.37881,-0.26657 0.75761,-0.65239 1.13643,-1.15747 0.39283,-0.5191 0.68044,-1.10134 0.86284,-1.74673 -0.19643,-0.0281 -0.39986,0.014 -0.6103,0.12627 -0.19643,0.0982 -0.39285,0.14732 -0.58926,0.14732 -0.51911,-0.014 -0.95404,-0.18239 -1.30478,-0.50508 -0.35076,-0.32268 -0.49807,-0.68044 -0.44195,-1.07329 0.0561,-0.2385 0.13328,-0.51208 0.2315,-0.82075 0.11223,-0.32268 0.33671,-0.82776 0.67343,-1.51523 0.33672,-0.68746 0.67344,-1.25567 1.01016,-1.70464 0.35074,-0.44894 0.69447,-0.67342 1.0312,-0.67344 0.57522,2e-5 1.05224,0.24554 1.43105,0.73658 0.39283,0.49105 0.58925,1.08031 0.58926,1.76777 -1e-5,0.35075 -0.0211,0.7015 -0.0631,1.05224 -0.0421,0.33673 -0.0912,0.62434 -0.14731,0.86284 -0.0421,0.22449 -0.11225,0.51912 -0.21045,0.88389 -0.0842,0.35075 -0.1824,0.68046 -0.29463,0.98911" />
          <path
             id="path3138"
             style=""
             d="m 224.23989,935.06328 c -0.0561,-0.19642 -0.0842,-0.48403 -0.0842,-0.86284 0,-0.4209 0.0491,-0.76463 0.14731,-1.0312 0.0982,-0.29463 0.2806,-0.55418 0.54717,-0.77866 0.54717,-0.4209 1.20657,-1.03821 1.97822,-1.85195 0.7015,-0.77164 1.10135,-1.27672 1.19956,-1.51524 -0.53314,-0.26656 -0.93299,-0.47701 -1.19956,-0.63134 -0.91194,-0.43492 -1.63449,-0.65239 -2.16762,-0.65239 -0.46299,0 -0.90493,0.24553 -1.32583,0.73657 -0.43493,0.50508 -0.69448,0.72956 -0.77866,0.67343 -0.16836,-0.0421 -0.21045,-0.18939 -0.12627,-0.44194 0.11224,-0.28059 0.33672,-0.68746 0.67344,-1.2206 0.33672,-0.53313 0.54015,-0.84881 0.6103,-0.94702 0.50508,-0.57522 1.05224,-0.86283 1.6415,-0.86284 0.37881,10e-6 0.98209,0.16836 1.80986,0.50507 0.81373,0.35076 1.5503,0.52613 2.20971,0.52613 0.65941,0 1.25568,-0.23149 1.78882,-0.69449 0.11223,-0.0701 0.23149,-0.0982 0.35776,-0.0842 0.11224,0.0561 0.16836,0.15434 0.16836,0.29463 0,0.12628 -0.0281,0.25957 -0.0842,0.39986 -0.12627,0.33672 -0.2315,0.61732 -0.31567,0.84179 -0.0702,0.21046 -0.12628,0.3718 -0.16836,0.48403 -0.23851,0.56121 -0.43493,0.91897 -0.58926,1.07329 -0.25254,0.0561 -0.52612,0.2315 -0.82075,0.52613 l -2.16762,2.35702 -2.23076,2.42017 -0.58926,0.69448 c -0.0421,0.0281 -0.20343,0.0421 -0.48403,0.0421 m 1.93613,14.37366 c 0,0.15432 0.10522,0.30163 0.31567,0.44194 0.23851,0.16835 0.60329,0.41387 1.09434,0.73657 0.50507,0.33671 0.7997,0.52611 0.88388,0.56822 0.22448,-2e-5 0.58224,-0.42092 1.07329,-1.2627 0.49105,-0.84181 0.73657,-1.48718 0.73657,-1.93613 -0.0421,-0.33673 -0.35776,-0.80673 -0.94702,-1.41 -0.58926,-0.58927 -1.03821,-0.82077 -1.34687,-0.69449 -0.15433,-10e-6 -0.49806,0.51208 -1.0312,1.53628 -0.51911,1.0382 -0.77866,1.71164 -0.77866,2.02031" />
          <path
             id="path3140"
             style=""
             d="m 224.49244,936.26284 c -0.49106,1.36091 -0.94703,2.36404 -1.36792,3.00942 -0.4209,0.64538 -0.75061,1.04523 -0.98911,1.19956 -0.23851,0.15433 -0.59628,0.32269 -1.07329,0.50507 -0.47702,0.16836 -1.20658,0.41389 -2.18867,0.73657 -0.96807,0.30866 -1.54329,0.46299 -1.72568,0.46299 -0.11224,0 -0.16836,-0.0281 -0.16836,-0.0842 -0.11224,-0.15433 0.47,-0.6594 1.74673,-1.51523 1.27672,-0.85582 2.09747,-1.41702 2.46225,-1.68359 0.3788,-0.26657 0.75761,-0.65239 1.13642,-1.15747 0.39284,-0.5191 0.68045,-1.10134 0.86284,-1.74673 -0.19642,-0.0281 -0.39985,0.014 -0.6103,0.12627 -0.19642,0.0982 -0.39284,0.14732 -0.58926,0.14732 -0.51911,-0.014 -0.95403,-0.18239 -1.30478,-0.50508 -0.35075,-0.32268 -0.49806,-0.68044 -0.44194,-1.07329 0.0561,-0.2385 0.13328,-0.51208 0.23149,-0.82075 0.11224,-0.32268 0.33672,-0.82776 0.67344,-1.51523 0.33671,-0.68746 0.67343,-1.25567 1.01015,-1.70464 0.35075,-0.44894 0.69448,-0.67342 1.0312,-0.67344 0.57522,2e-5 1.05224,0.24554 1.43106,0.73658 0.39283,0.49105 0.58925,1.08031 0.58925,1.76777 0,0.35075 -0.0211,0.7015 -0.0631,1.05224 -0.0421,0.33673 -0.0912,0.62434 -0.14732,0.86284 -0.0421,0.22449 -0.11224,0.51912 -0.21044,0.88389 -0.0842,0.35075 -0.1824,0.68046 -0.29463,0.98911" />
          <path
             id="path3142"
             style=""
             d="m 217.86329,924.01471 c -0.0281,1.01017 -0.0491,1.92211 -0.0631,2.73584 -0.014,0.81374 -0.0561,1.50121 -0.12627,2.0624 -0.11225,1.20658 -0.34374,2.27986 -0.69448,3.21986 -0.35076,0.92598 -0.63135,1.5433 -0.8418,1.85195 -0.19642,0.30866 -0.35777,0.53314 -0.48403,0.67344 -0.15433,0.1403 -0.27359,0.18941 -0.35777,0.14732 -0.0842,-0.0561 -0.11224,-0.1403 -0.0842,-0.25254 -10e-6,-0.0281 0.0842,-0.44896 0.25253,-1.2627 0.16836,-0.82776 0.27359,-1.62746 0.31568,-2.39911 0.0421,-0.77164 0.0491,-1.85896 0.021,-3.26196 -0.0281,-1.41702 0.007,-2.49732 0.10523,-3.24092 0.0561,-0.43491 0.14731,-0.88387 0.27358,-1.34687 0.1403,-0.46297 0.29463,-0.91895 0.46299,-1.36792 0.16835,-0.44894 0.34373,-0.86984 0.52612,-1.26269 0.19642,-0.40685 0.37179,-0.76462 0.52612,-1.07329 0.12627,-0.1964 0.23851,-0.27357 0.33672,-0.23149 0.0982,0.0421 0.1403,0.11927 0.12627,0.23149 -0.0281,0.11225 -0.0631,0.37882 -0.10522,0.7997 -0.0281,0.40689 -0.0561,0.86988 -0.0842,1.38897 -0.0281,0.50509 -0.0561,1.00315 -0.0842,1.49419 -0.014,0.49106 -0.0211,0.85583 -0.0211,1.09433" />
          <path
             id="path3144"
             style=""
             d="m 206.49905,934.11626 c -0.0421,1.69763 0.28059,2.77793 0.96806,3.24091 0.37881,0.25255 0.75762,0.33672 1.13643,0.25254 0.3788,-0.0842 0.66641,-0.28059 0.86284,-0.58926 0.21044,-0.30865 0.38582,-0.66641 0.52612,-1.07329 0.14029,-0.42089 0.27358,-0.63134 0.39985,-0.63134 0.15433,0 0.21746,0.14732 0.18941,0.44194 -0.014,0.50508 -0.17538,1.32583 -0.48403,2.46225 -0.29464,1.13643 -0.70151,2.06942 -1.22061,2.79897 -0.51911,0.72956 -1.15046,1.11538 -1.89404,1.15747 -0.75762,-0.0281 -1.34687,-0.45597 -1.76777,-1.28374 -0.37881,-0.81373 -0.55418,-1.86597 -0.52612,-3.15673 0.0281,-0.94 0.15433,-2.44822 0.37881,-4.52465 0.2385,-2.07642 0.54716,-4.30016 0.92597,-6.67123 0.22448,-0.68745 0.68045,-1.90104 1.36792,-3.64077 0.0702,-0.16834 0.1403,-0.23849 0.21045,-0.21045 0.0842,0.0281 0.12626,0.0982 0.12627,0.21045 -0.0421,0.85584 -0.21747,2.49033 -0.52612,4.90346 -0.30867,2.41316 -0.53314,4.51765 -0.67344,6.31347 m 2.94628,-12.71112 c 0,-0.30863 0.25955,-0.97506 0.77867,-1.99926 0.53313,-1.03819 0.87686,-1.5573 1.0312,-1.55732 0.30865,-0.12625 0.7576,0.11226 1.34687,0.71552 0.58925,0.58928 0.90492,1.05227 0.94702,1.38897 -1e-5,0.44897 -0.24553,1.09435 -0.73657,1.93613 -0.49106,0.84181 -0.84882,1.26271 -1.07329,1.26269 -0.0842,-0.0421 -0.37882,-0.22446 -0.88389,-0.54717 -0.49105,-0.3367 -0.85583,-0.58923 -1.09433,-0.75761 -0.21046,-0.14028 -0.31568,-0.2876 -0.31568,-0.44195" />
          <path
             id="path3146"
             style=""
             d="m 196.43959,935.56836 c 0.0561,0.2806 0.0351,0.58926 -0.0631,0.92597 -0.0982,0.33673 -0.25956,0.71553 -0.48403,1.13643 -0.21046,0.40687 -0.49807,0.78568 -0.86284,1.13642 -0.23852,0.22448 -0.42792,0.33672 -0.56821,0.33672 -0.0842,0 -0.28061,-0.11925 -0.58926,-0.35776 -0.29464,-0.25254 -0.56822,-0.47702 -0.82075,-0.67344 -0.23852,-0.21045 -0.44897,-0.39985 -0.63135,-0.56821 -0.16836,-0.16836 -0.25254,-0.30866 -0.25254,-0.4209 0.18239,-0.3788 0.31567,-0.66642 0.39986,-0.86284 0.28059,-0.63134 0.5191,-1.1294 0.71552,-1.49419 0.21044,-0.36477 0.53313,-0.90492 0.96807,-1.62046 0.25253,0.21046 0.56119,0.463 0.92597,0.75762 0.3788,0.28061 0.66641,0.54717 0.86284,0.79971 0.21044,0.25254 0.34373,0.55418 0.39986,0.90493 m 6.35555,-2.0624 c -0.25255,4.4054 -1.52927,8.19348 -3.83017,11.36424 -2.27286,3.07255 -5.00167,4.62285 -8.18646,4.65092 -1.65553,-0.0702 -2.96733,-0.61732 -3.93539,-1.6415 -0.96807,-1.01016 -1.48016,-2.42017 -1.53628,-4.23002 -0.014,-2.86211 0.92597,-5.96974 2.82001,-9.32289 0.36478,-0.67343 0.58224,-0.88388 0.6524,-0.63135 0.0701,0.23852 0.0631,0.48404 -0.0211,0.73657 -1.24867,2.46927 -1.88703,4.60182 -1.91508,6.39765 0.0561,1.34687 0.53313,2.37106 1.43105,3.07255 0.91194,0.7015 2.1115,1.08031 3.59868,1.13643 1.82388,0 3.57762,-0.48404 5.26122,-1.4521 1.66955,-1.10836 2.83403,-2.58852 3.49345,-4.44047 0.25252,-0.64538 0.37879,-1.5012 0.37881,-2.56748 -2e-5,-0.40686 -0.007,-0.91895 -0.0211,-1.53628 -10e-6,-0.63134 -10e-6,-1.08029 0,-1.34687 0.0561,-0.77164 0.2385,-1.62045 0.54717,-2.54643 0.30864,-0.93999 0.56118,-1.62045 0.75762,-2.04136 0.21043,-0.42088 0.3858,-0.63133 0.52612,-0.63134 0.0982,10e-6 0.14028,0.11225 0.12627,0.33672 -0.014,0.21046 -0.0351,0.62434 -0.0631,1.24164 -0.0281,0.61733 -0.0561,1.76779 -0.0842,3.45137" />
          <path
             id="path3148"
             style=""
             d="m 181.83444,930.32818 c -0.0281,1.01016 -0.0491,1.92211 -0.0631,2.73583 -0.014,0.81375 -0.0561,1.50121 -0.12627,2.0624 -0.11224,1.20658 -0.34373,2.27987 -0.69448,3.21987 -0.35075,0.92598 -0.63135,1.5433 -0.84179,1.85195 -0.19643,0.30866 -0.35777,0.53314 -0.48404,0.67344 -0.15433,0.1403 -0.27358,0.1894 -0.35776,0.14731 -0.0842,-0.0561 -0.11224,-0.14029 -0.0842,-0.25254 0,-0.0281 0.0842,-0.44895 0.25254,-1.26269 0.16836,-0.82776 0.27358,-1.62747 0.31567,-2.39912 0.0421,-0.77164 0.0491,-1.85896 0.0211,-3.26196 -0.0281,-1.41701 0.007,-2.49731 0.10522,-3.24091 0.0561,-0.43491 0.14731,-0.88387 0.27359,-1.34687 0.14029,-0.46298 0.29462,-0.91895 0.46298,-1.36792 0.16836,-0.44894 0.34373,-0.86984 0.52613,-1.26269 0.19641,-0.40686 0.37178,-0.76462 0.52612,-1.07329 0.12626,-0.19641 0.2385,-0.27357 0.33672,-0.2315 0.0982,0.0421 0.14029,0.11927 0.12627,0.2315 -0.0281,0.11225 -0.0631,0.37882 -0.10523,0.7997 -0.0281,0.40689 -0.0561,0.86987 -0.0842,1.38897 -0.0281,0.50509 -0.0561,1.00315 -0.0842,1.49418 -0.014,0.49106 -0.0211,0.85584 -0.021,1.09434" />
          <path
             id="path3150"
             style=""
             d="m 171.66975,935.14746 c 0.22448,0.0702 0.46299,0.021 0.71553,-0.14732 0.26657,-0.16835 0.63134,-0.64537 1.09433,-1.43105 0.23851,0.1403 0.39284,0.22448 0.46299,0.25254 0.43493,0.15433 0.83478,-0.35776 1.19956,-1.53628 0.0561,-0.014 0.1894,0.014 0.39985,0.0842 0.22448,0.0702 0.40687,10e-6 0.54717,-0.21045 0.15432,-0.19641 0.30865,-0.49805 0.46299,-0.90493 0.16835,-0.42089 0.27358,-0.63134 0.31567,-0.63134 0.0982,-0.014 0.16134,0.0421 0.18941,0.16836 0.028,0.12627 0.021,0.27359 -0.0211,0.44194 -0.11224,0.61732 -0.30866,1.24165 -0.58926,1.87299 -0.23851,0.57523 -0.53314,1.01016 -0.88388,1.30479 -0.33672,0.29463 -0.6524,0.58926 -0.94702,0.88388 -0.30866,0.30866 -0.58926,0.50508 -0.8418,0.58926 -0.29463,0.11224 -0.56821,0.21747 -0.82075,0.31567 -1.02418,1.08031 -1.69762,1.60643 -2.02031,1.57837 -0.0421,-0.11224 -0.0912,-0.2806 -0.14731,-0.50508 -0.0561,-0.22448 -0.0912,-0.46298 -0.10523,-0.71552 -0.0281,-0.26657 -0.021,-0.53314 0.0211,-0.79971 0.0281,-0.2806 0.10522,-0.52612 0.23149,-0.73657 l 0.73657,0.12627" />
          <path
             id="path3152"
             style=""
             d="m 170.93318,937.77807 c -0.4209,-0.0702 -0.73658,-0.0702 -0.94702,0 -0.72956,0.23851 -1.48016,1.0312 -2.2518,2.37807 -0.82777,1.34688 -1.75375,2.02031 -2.77793,2.02031 -1.03821,-0.0842 -1.82389,-0.55418 -2.35703,-1.41001 -0.53313,-0.85582 -0.80672,-1.90806 -0.82075,-3.15673 0.23851,-0.81373 0.50508,-1.51523 0.79971,-2.10449 0.29463,-0.60328 0.63836,-1.01716 1.0312,-1.24165 0,1.403 0.34373,2.42017 1.0312,3.05151 0.5191,0.46299 1.12239,0.69449 1.80986,0.69448 0.95403,1e-5 1.73971,-0.42089 2.35703,-1.26269 0.46298,-0.61731 0.85582,-1.05925 1.17851,-1.32583 0.33671,-0.26656 0.65239,-0.39984 0.94702,-0.39985 0.0281,0.0561 0.0772,0.25956 0.14732,0.6103 0.0701,0.33673 0.10521,0.63837 0.10522,0.90493 -1e-5,0.28061 -0.0281,0.5121 -0.0842,0.69448 -0.0421,0.16837 -0.0982,0.35076 -0.16836,0.54717 m -7.4078,-18.62473 c 0,-0.18237 0.28761,-0.81371 0.86284,-1.89404 0.57522,-1.08028 0.92597,-1.62043 1.05224,-1.62046 0.23851,-0.0982 0.58224,0.0772 1.0312,0.52612 0.46299,0.43496 0.81374,0.82078 1.05225,1.15747 0.28059,-0.46296 0.58925,-0.98207 0.92597,-1.55732 0.35075,-0.5752 0.58224,-0.86281 0.69449,-0.86284 0.35074,3e-5 0.76462,0.25958 1.24164,0.77866 0.49104,0.50511 0.7506,0.98212 0.77866,1.43105 0,0.53317 -0.25956,1.16451 -0.77866,1.89405 -0.50508,0.71554 -0.87687,1.07331 -1.11538,1.07328 -0.15433,3e-5 -0.43493,-0.20341 -0.84179,-0.6103 -0.40687,-0.40684 -0.76464,-0.72252 -1.07329,-0.94702 -0.75762,1.52929 -1.36091,2.29392 -1.80986,2.2939 -0.11224,2e-5 -0.27359,-0.0912 -0.48403,-0.27359 -0.19642,-0.16833 -0.50508,-0.42087 -0.92598,-0.75761 -0.40687,-0.3367 -0.6103,-0.54715 -0.6103,-0.63135" />
          <path
             id="path3154"
             style=""
             d="m 163.56747,934.24253 c -0.0281,0.53314 -0.0842,1.01717 -0.16836,1.4521 -0.0842,0.4209 -0.19642,0.78568 -0.33672,1.09433 -0.1403,0.29463 -0.32269,0.51911 -0.54717,0.67344 -0.21045,0.1403 -0.47,0.18941 -0.77866,0.14731 0.014,-1.09433 0.12627,-2.61657 0.33672,-4.56674 0.22448,-1.96418 0.55418,-4.1318 0.98911,-6.50287 0.22448,-0.68745 0.68045,-1.90104 1.36792,-3.64077 0.0701,-0.16834 0.14029,-0.23849 0.21045,-0.21045 0.0842,0.0281 0.12626,0.0982 0.12627,0.21045 -0.0421,0.85584 -0.21747,2.49033 -0.52613,4.90346 -0.30866,2.41316 -0.49806,4.06869 -0.56821,4.9666 -0.0701,0.89792 -0.10523,1.38897 -0.10522,1.47314" />
          <path
             id="path3156"
             style=""
             d="m 153.33965,935.56836 c 0.0561,0.2806 0.0351,0.58926 -0.0631,0.92597 -0.0982,0.33673 -0.25956,0.71553 -0.48403,1.13643 -0.21046,0.40687 -0.49807,0.78568 -0.86284,1.13642 -0.23852,0.22448 -0.42792,0.33672 -0.56821,0.33672 -0.0842,0 -0.28061,-0.11925 -0.58926,-0.35776 -0.29463,-0.25254 -0.56822,-0.47702 -0.82075,-0.67344 -0.23851,-0.21045 -0.44896,-0.39985 -0.63134,-0.56821 -0.16837,-0.16836 -0.25255,-0.30866 -0.25254,-0.4209 0.18238,-0.3788 0.31566,-0.66642 0.39985,-0.86284 0.28059,-0.63134 0.5191,-1.1294 0.71553,-1.49419 0.21044,-0.36477 0.53312,-0.90492 0.96806,-1.62046 0.25253,0.21046 0.56119,0.463 0.92598,0.75762 0.37879,0.28061 0.66641,0.54717 0.86284,0.79971 0.21043,0.25254 0.34372,0.55418 0.39985,0.90493 m 6.35556,-2.0624 c -0.25256,4.4054 -1.52928,8.19348 -3.83017,11.36424 -2.27286,3.07255 -5.00168,4.62285 -8.18647,4.65092 -1.65553,-0.0702 -2.96733,-0.61732 -3.93539,-1.6415 -0.96807,-1.01016 -1.48016,-2.42017 -1.53628,-4.23002 -0.014,-2.86211 0.92598,-5.96974 2.82002,-9.32289 0.36477,-0.67343 0.58224,-0.88388 0.65239,-0.63135 0.0701,0.23852 0.0631,0.48404 -0.021,0.73657 -1.24866,2.46927 -1.88702,4.60182 -1.91508,6.39765 0.0561,1.34687 0.53313,2.37106 1.43105,3.07255 0.91194,0.7015 2.1115,1.08031 3.59868,1.13643 1.82388,0 3.57762,-0.48404 5.26122,-1.4521 1.66955,-1.10836 2.83403,-2.58852 3.49345,-4.44047 0.25253,-0.64538 0.3788,-1.5012 0.37881,-2.56748 -10e-6,-0.40686 -0.007,-0.91895 -0.021,-1.53628 -2e-5,-0.63134 -2e-5,-1.08029 0,-1.34687 0.0561,-0.77164 0.23849,-1.62045 0.54716,-2.54643 0.30865,-0.93999 0.56118,-1.62045 0.75762,-2.04136 0.21043,-0.42088 0.38581,-0.63133 0.52612,-0.63134 0.0982,10e-6 0.14028,0.11225 0.12627,0.33672 -0.014,0.21046 -0.0351,0.62434 -0.0631,1.24164 -0.0281,0.61733 -0.0561,1.76779 -0.0842,3.45137" />
          <path
             id="path3158"
             style=""
             d="m 135.8303,936.07343 c -0.19642,0.0702 -0.41389,0.0912 -0.6524,0.0631 -0.2385,-0.014 -0.42089,-0.0351 -0.54716,-0.0631 0.5191,-1.09433 1.14344,-2.12553 1.87299,-3.0936 0.72956,-0.96806 1.38195,-1.7397 1.95718,-2.31493 0.53313,-0.50508 0.96104,-0.84179 1.28374,-1.01016 0.28059,-0.14029 0.43492,-0.12626 0.46298,0.0421 0.0421,0.15434 -0.10523,0.54717 -0.44194,1.17851 -0.30866,0.6033 -0.53314,1.10136 -0.67344,1.49419 -0.11224,0.25254 -0.35075,0.48404 -0.71552,0.69448 -0.37881,0.19643 -0.8418,0.61031 -1.38897,1.24165 -0.53313,0.67344 -0.91896,1.2627 -1.15746,1.76777 m -3.28301,-17.42517 c 1e-5,-0.18237 0.28762,-0.81372 0.86284,-1.89404 0.57523,-1.08028 0.92598,-1.62043 1.05225,-1.62046 0.23851,-0.0982 0.58926,0.0772 1.05224,0.52613 0.44896,0.43494 0.79269,0.82077 1.0312,1.15747 0.2806,-0.46297 0.58926,-0.98208 0.92598,-1.55733 0.35074,-0.5752 0.58224,-0.86281 0.69448,-0.86284 0.35074,3e-5 0.76463,0.25958 1.24165,0.77866 0.49104,0.5051 0.75059,0.98212 0.77866,1.43106 -1e-5,0.53315 -0.25956,1.1645 -0.77866,1.89404 -0.50508,0.71554 -0.87688,1.0733 -1.11538,1.07329 -0.15433,10e-6 -0.43493,-0.20342 -0.8418,-0.6103 -0.40687,-0.40686 -0.76463,-0.72253 -1.07329,-0.94702 -0.75761,1.52927 -1.3609,2.2939 -1.80986,2.29389 -0.11224,1e-5 -0.27358,-0.0912 -0.48403,-0.27359 -0.19642,-0.16834 -0.49806,-0.42088 -0.90493,-0.75761 -0.4209,-0.3367 -0.63134,-0.54715 -0.63135,-0.63135" />
          <path
             id="path3160"
             style=""
             d="m 135.28313,937.10463 -1.0312,2.25181 c -0.30866,0.6594 -0.56821,0.92597 -0.77866,0.7997 -0.11224,-0.0561 -0.11224,-0.2806 0,-0.67343 l 0.16836,-0.82075 c 0.0561,-0.28061 -0.1403,-0.54016 -0.58926,-0.77867 -0.43493,-0.23851 -0.98911,-0.35776 -1.66254,-0.35776 -0.68747,0.014 -1.25568,0.0982 -1.70464,0.25254 l -2.98837,-0.27358 c 2.11852,-2.59554 4.26509,-3.89331 6.43973,-3.89331 0.64538,0 1.15747,0.0772 1.53628,0.23149 0.33672,0.12628 0.63836,0.32269 0.90493,0.58926 0.0421,0.0421 0.0772,0.0842 0.10523,0.12627 0.0281,0.0281 0.0561,0.0491 0.0842,0.0631 0.11224,0.16836 0.19642,0.30866 0.25254,0.42089 0.0421,0.18239 0.0491,0.35075 0.0211,0.50508 -0.0561,0.19642 -0.11926,0.37179 -0.18941,0.52612 l -0.56821,1.0312" />
          <path
             id="path3162"
             style=""
             d="m 131.41087,934.49507 c 0.16835,-0.0702 0.32969,-0.13328 0.48403,-0.18941 0.18238,0.44897 0.26656,0.89792 0.25254,1.34688 -0.014,0.44896 -0.0982,0.8909 -0.25254,1.32582 -0.0842,0.0281 -0.50508,0.1824 -1.26269,0.46299 -0.75762,0.2806 -1.22763,0.46299 -1.41001,0.54717 -0.74359,0.29463 -1.5924,1.02419 -2.54643,2.18867 -0.94001,1.16448 -1.75374,2.16762 -2.44121,3.00942 -1.41702,1.80986 -3.00942,3.30404 -4.77719,4.48256 -0.40686,0.2385 -0.86284,0.48403 -1.36792,0.73657 -0.72955,0.36477 -1.27671,0.63134 -1.6415,0.79971 -0.30865,0.15432 -0.54014,0.18939 -0.69448,0.10522 -0.0701,-0.11225 -0.0351,-0.23851 0.10523,-0.37881 0.0842,-0.0561 0.18239,-0.13329 0.29462,-0.23149 0.11225,-0.0842 0.23852,-0.1824 0.37881,-0.29463 l 1.76777,-1.26269 c 1.15046,-0.91195 1.83793,-1.48718 2.0624,-1.72568 0.64538,-0.60329 1.10135,-1.0733 1.36792,-1.41001 0.29463,-0.25254 0.68747,-0.68747 1.17851,-1.30479 0.35075,-0.42089 1.08031,-1.43806 2.18867,-3.0515 0.63135,-0.88389 1.13642,-1.55732 1.51524,-2.02031 0.54716,-0.61732 1.07328,-1.12941 1.57836,-1.53628 0.5191,-0.36477 1.03821,-0.66642 1.55732,-0.90493 0.19642,-0.0982 0.7506,-0.3297 1.66255,-0.69448" />
          <path
             id="path3164"
             style=""
             d="m 122.40366,928.22369 c -0.0281,1.01016 -0.0491,1.92211 -0.0631,2.73583 -0.014,0.81375 -0.0561,1.50121 -0.12627,2.0624 -0.11224,1.20658 -0.34373,2.27987 -0.69448,3.21987 -0.35075,0.92598 -0.63135,1.5433 -0.84179,1.85195 -0.19643,0.30866 -0.35777,0.53314 -0.48404,0.67344 -0.15433,0.1403 -0.27358,0.18941 -0.35776,0.14731 -0.0842,-0.0561 -0.11224,-0.14029 -0.0842,-0.25253 0,-0.0281 0.0842,-0.44896 0.25254,-1.2627 0.16836,-0.82776 0.27358,-1.62747 0.31567,-2.39912 0.0421,-0.77164 0.0491,-1.85895 0.0211,-3.26195 -0.0281,-1.41702 0.007,-2.49732 0.10522,-3.24092 0.0561,-0.43491 0.14731,-0.88387 0.27359,-1.34687 0.14029,-0.46298 0.29462,-0.91895 0.46298,-1.36792 0.16836,-0.44894 0.34373,-0.86984 0.52613,-1.26269 0.19641,-0.40685 0.37178,-0.76462 0.52612,-1.07329 0.12626,-0.1964 0.2385,-0.27357 0.33672,-0.2315 0.0982,0.0421 0.14029,0.11927 0.12627,0.2315 -0.0281,0.11225 -0.0631,0.37882 -0.10523,0.7997 -0.0281,0.40689 -0.0561,0.86987 -0.0842,1.38897 -0.0281,0.50509 -0.0561,1.00315 -0.0842,1.49418 -0.014,0.49106 -0.0211,0.85584 -0.021,1.09434" />
          <path
             id="path3166"
             style=""
             d="m 110.91314,935.56836 c 0.0561,0.2806 0.0351,0.58926 -0.0631,0.92597 -0.0982,0.33673 -0.25957,0.71553 -0.48403,1.13643 -0.21046,0.40687 -0.49808,0.78568 -0.86284,1.13642 -0.23852,0.22448 -0.42793,0.33672 -0.56822,0.33672 -0.0842,0 -0.2806,-0.11925 -0.58925,-0.35776 -0.29464,-0.25254 -0.56822,-0.47702 -0.82075,-0.67344 -0.23852,-0.21045 -0.44897,-0.39985 -0.63135,-0.56821 -0.16837,-0.16836 -0.25255,-0.30866 -0.25254,-0.4209 0.18238,-0.3788 0.31567,-0.66642 0.39985,-0.86284 0.28059,-0.63134 0.5191,-1.1294 0.71553,-1.49419 0.21044,-0.36477 0.53313,-0.90492 0.96806,-1.62046 0.25253,0.21046 0.56119,0.463 0.92598,0.75762 0.3788,0.28061 0.66641,0.54717 0.86284,0.79971 0.21044,0.25254 0.34372,0.55418 0.39985,0.90493 m 6.35556,-2.0624 c -0.25256,4.4054 -1.52928,8.19348 -3.83017,11.36424 -2.27286,3.07255 -5.00168,4.62285 -8.18646,4.65092 -1.65554,-0.0702 -2.96734,-0.61732 -3.9354,-1.6415 -0.96806,-1.01016 -1.480156,-2.42017 -1.536275,-4.23002 -0.01403,-2.86211 0.925975,-5.96974 2.820015,-9.32289 0.36478,-0.67343 0.58224,-0.88388 0.65239,-0.63135 0.0702,0.23852 0.0631,0.48404 -0.021,0.73657 -1.24867,2.46927 -1.88703,4.60182 -1.91509,6.39765 0.0561,1.34687 0.53314,2.37106 1.43105,3.07255 0.91195,0.7015 2.1115,1.08031 3.59868,1.13643 1.82388,0 3.57762,-0.48404 5.26122,-1.4521 1.66955,-1.10836 2.83404,-2.58852 3.49346,-4.44047 0.25252,-0.64538 0.37879,-1.5012 0.37881,-2.56748 -2e-5,-0.40686 -0.007,-0.91895 -0.0211,-1.53628 -2e-5,-0.63134 -2e-5,-1.08029 0,-1.34687 0.0561,-0.77164 0.23849,-1.62045 0.54717,-2.54643 0.30864,-0.93999 0.56118,-1.62045 0.75761,-2.04136 0.21044,-0.42088 0.38581,-0.63133 0.52613,-0.63134 0.0982,10e-6 0.14028,0.11225 0.12627,0.33672 -0.014,0.21046 -0.0351,0.62434 -0.0631,1.24164 -0.0281,0.61733 -0.0561,1.76779 -0.0842,3.45137" />
        </g>
      </g>
    </g>
  </g>
</svg>
